{"glyphs":{"0":{"ha":821,"x_min":76,"x_max":738,"o":"m 411 728 q 649 620 561 728 q 738 343 738 513 q 647 82 738 174 q 400 -28 557 -10 q 163 77 249 -28 q 76 353 76 182 q 166 617 76 525 q 411 728 256 710 m 380 607 q 319 607 380 607 q 202 553 258 607 q 146 383 146 499 q 228 178 146 267 q 429 90 310 90 q 606 148 549 90 q 663 320 663 206 q 582 521 663 435 q 380 607 501 607 z "},"1":{"ha":461,"x_min":17,"x_max":421,"o":"m 293 738 q 322 707 314 729 q 294 594 299 651 q 289 291 289 536 q 301 44 289 46 q 417 40 340 40 q 421 18 421 19 l 417 -4 l 254 0 q 24 -11 124 0 q 17 11 17 -4 l 18 24 q 168 93 154 54 q 185 322 185 133 q 182 576 185 510 l 33 557 q 24 585 24 571 q 26 606 24 600 q 187 665 147 644 q 293 738 226 685 z "},"2":{"ha":679,"x_min":35,"x_max":629,"o":"m 467 -4 l 243 0 q 43 -7 104 0 q 35 22 35 4 l 201 183 q 236 215 206 188 q 286 262 267 243 q 336 315 306 281 q 386 378 367 349 q 432 508 432 447 q 388 608 432 568 q 286 649 343 649 q 151 611 229 649 q 132 471 135 513 q 110 465 121 465 q 93 468 100 465 q 77 588 88 556 q 67 622 67 621 q 88 649 67 640 q 315 728 172 685 q 485 682 415 728 q 554 538 554 636 q 432 324 554 439 l 185 89 l 332 89 q 499 98 454 89 q 567 132 544 107 q 593 183 574 140 q 608 185 596 185 q 629 176 621 185 q 619 123 625 151 q 611 81 614 94 q 606 13 606 36 q 467 -4 578 -4 z "},"3":{"ha":663,"x_min":39,"x_max":561,"o":"m 282 646 q 124 610 224 646 q 106 468 110 524 q 82 463 94 463 l 65 467 q 44 608 57 567 l 39 624 q 60 646 39 638 q 317 728 115 675 q 560 563 560 728 q 533 480 560 522 q 415 349 507 438 l 363 299 q 561 7 561 171 q 440 -231 561 -136 q 67 -415 319 -325 q 56 -379 56 -404 q 344 -213 250 -292 q 439 -40 439 -135 q 380 119 439 56 q 217 243 321 183 l 329 346 q 439 528 439 444 q 282 646 439 646 z "},"4":{"ha":726,"x_min":-17,"x_max":713,"o":"m 429 -132 l 429 -4 q 167 0 288 0 q -10 -7 46 0 q -17 22 -17 1 q 40 89 18 58 l 340 488 q 489 697 414 583 l 511 732 q 550 718 533 729 q 532 356 532 638 l 532 88 q 649 113 631 88 q 676 174 667 146 q 693 176 683 176 q 713 167 703 176 q 697 85 707 133 q 685 10 686 38 q 532 -6 663 -3 q 539 -365 532 -54 q 435 -410 494 -368 q 407 -401 419 -410 q 429 -132 429 -300 m 429 83 l 429 511 l 110 83 l 429 83 z "},"5":{"ha":657,"x_min":56,"x_max":610,"o":"m 589 617 q 444 596 558 596 q 168 601 329 596 l 144 429 q 425 267 315 361 q 535 56 535 172 q 400 -228 535 -112 q 259 -330 332 -286 q 72 -429 186 -374 q 56 -394 58 -424 q 319 -201 232 -290 q 407 -2 407 -111 q 311 190 407 107 q 71 328 215 272 l 132 711 q 410 704 294 704 q 549 728 525 704 q 564 751 556 735 q 576 774 572 767 q 610 767 596 774 q 589 617 590 669 z "},"6":{"ha":800,"x_min":93,"x_max":735,"o":"m 93 376 q 162 643 93 506 q 363 867 231 781 q 654 994 496 954 q 665 960 665 979 q 390 801 490 888 q 228 379 228 660 q 274 136 228 236 q 340 56 297 85 q 439 26 382 26 q 569 89 524 26 q 615 243 615 151 q 561 415 615 335 q 418 494 507 494 q 321 468 368 494 q 301 504 301 478 q 478 549 375 549 q 658 471 582 549 q 735 290 735 393 q 643 72 735 150 q 401 -28 551 -6 q 177 85 261 -28 q 93 376 93 197 z "},"7":{"ha":699,"x_min":18,"x_max":707,"o":"m 693 715 q 707 689 704 707 q 451 265 588 532 q 179 -404 289 -60 q 167 -407 174 -407 q 154 -404 160 -407 q 75 -361 121 -371 l 60 -357 q 363 249 193 -51 q 576 599 467 429 q 278 610 450 610 q 85 576 106 610 q 56 517 65 540 q 41 515 51 515 q 18 524 31 515 q 50 717 50 701 q 382 707 154 707 q 693 715 610 707 z "},"8":{"ha":689,"x_min":50,"x_max":638,"o":"m 72 729 q 147 903 72 843 q 343 982 222 964 q 517 922 438 982 q 596 782 596 861 q 551 651 596 703 q 404 529 507 600 q 575 397 513 463 q 638 249 638 332 q 552 59 638 126 q 333 -28 467 -8 q 139 38 228 -28 q 50 197 50 104 q 113 358 50 290 q 289 490 176 425 q 128 607 185 553 q 72 729 72 661 m 165 235 q 219 85 165 147 q 353 22 274 22 q 480 74 433 22 q 526 203 526 126 q 471 339 526 279 q 317 463 415 399 q 165 235 165 353 m 490 749 q 442 882 490 826 q 323 938 393 938 q 210 890 253 938 q 168 788 168 843 q 376 557 168 688 q 490 749 490 646 z "},"9":{"ha":800,"x_min":65,"x_max":707,"o":"m 707 293 q 649 9 707 157 q 488 -239 592 -139 q 207 -415 357 -362 q 193 -379 193 -400 q 340 -285 283 -329 q 451 -171 397 -242 q 572 290 572 -15 q 486 617 572 517 q 357 674 436 674 q 233 607 278 674 q 188 443 188 540 q 240 261 188 346 q 382 176 293 176 q 482 201 425 176 q 500 167 500 192 q 324 122 429 122 q 142 203 219 122 q 65 390 65 283 q 158 621 65 538 q 400 728 250 704 q 624 606 540 728 q 707 293 707 485 z "}," ":{"ha":426,"x_min":0,"x_max":0,"o":""},"!":{"ha":465,"x_min":111,"x_max":310,"o":"m 189 265 l 185 704 q 150 944 185 938 l 117 950 l 113 967 l 118 985 q 289 1074 176 1006 q 310 1061 310 1074 l 240 271 l 189 265 m 190 -28 q 111 76 138 15 q 218 156 163 129 q 294 50 275 104 q 249 7 281 31 q 190 -28 218 -17 z "},"\"":{"ha":601,"x_min":139,"x_max":474,"o":"m 139 1167 q 188 1176 163 1176 q 243 1167 214 1176 l 200 796 q 178 793 193 793 q 151 796 163 793 l 139 1167 m 371 1167 q 419 1176 394 1176 q 474 1167 444 1176 l 432 796 q 409 793 424 793 q 383 796 394 793 l 371 1167 z "},"#":{"ha":794,"x_min":65,"x_max":729,"o":"m 554 176 l 539 -26 q 472 -44 503 -32 q 451 -32 458 -44 q 479 178 468 44 l 290 178 l 276 -26 q 210 -44 240 -32 q 189 -32 196 -44 q 217 176 206 44 q 78 167 165 176 q 65 188 65 172 q 83 249 78 219 l 222 249 l 235 440 q 78 429 179 439 q 65 450 65 435 q 83 511 78 482 l 240 511 l 254 685 q 322 704 307 696 q 344 690 336 704 q 317 511 325 594 l 504 511 l 517 685 q 585 704 567 696 q 607 690 599 704 q 579 513 603 669 q 717 524 665 518 q 729 501 729 518 q 711 439 722 489 l 572 439 l 560 250 q 717 261 615 251 q 729 239 729 256 q 711 176 722 226 l 554 176 m 294 249 l 485 249 l 499 440 l 311 440 l 294 249 z "},"$":{"ha":651,"x_min":85,"x_max":561,"o":"m 349 818 q 363 810 360 818 q 357 707 357 740 q 533 671 451 703 q 511 515 524 638 q 492 510 504 510 q 468 513 479 510 q 446 621 464 560 q 356 656 419 647 l 356 404 l 401 382 q 561 178 561 304 q 499 39 561 93 q 344 -26 436 -15 l 344 -126 q 299 -140 324 -131 q 283 -132 289 -140 l 289 -28 q 111 4 171 -21 q 85 178 104 76 q 112 188 101 188 q 126 185 122 188 q 138 153 129 179 q 174 78 156 99 q 290 28 215 36 l 290 300 l 233 328 q 99 513 99 392 q 158 647 99 600 q 301 704 218 694 l 301 804 q 349 818 325 808 m 451 143 q 344 274 451 224 l 344 28 q 422 63 392 33 q 451 143 451 92 m 301 656 q 231 622 257 650 q 206 554 206 594 q 231 483 206 514 q 294 433 257 451 l 301 429 l 301 656 z "},"%":{"ha":918,"x_min":83,"x_max":835,"o":"m 428 524 q 251 326 428 347 q 128 382 174 326 q 83 526 83 438 q 131 664 83 614 q 260 722 178 714 q 382 665 336 722 q 428 524 428 608 m 243 624 q 215 624 243 624 q 163 605 186 624 q 140 539 140 586 q 176 458 140 492 q 268 424 211 424 q 348 444 325 424 q 371 513 371 465 q 335 592 371 560 q 243 624 300 624 m 835 121 q 660 -78 835 -57 q 535 -22 581 -78 q 490 122 490 35 q 538 260 490 210 q 667 318 585 310 q 789 262 743 318 q 835 121 835 206 m 650 221 q 622 221 650 221 q 571 201 593 221 q 549 135 549 182 q 584 55 549 89 q 676 21 619 21 q 755 41 732 21 q 778 108 778 61 q 742 188 778 156 q 650 221 707 221 m 668 726 q 681 728 672 728 q 690 724 689 728 q 738 661 707 694 l 479 283 q 360 101 439 225 q 257 -76 281 -24 q 249 -78 254 -78 l 238 -74 q 189 -17 221 -51 l 418 322 q 542 514 450 368 q 668 726 633 660 z "},"&":{"ha":1154,"x_min":49,"x_max":1157,"o":"m 735 718 l 901 715 q 1063 722 1018 715 q 1071 699 1071 707 l 1068 688 q 925 596 982 679 q 846 451 879 528 q 743 233 811 367 q 1056 49 913 72 q 1154 43 1088 43 q 1157 15 1157 24 q 1156 0 1157 6 q 1006 -16 1065 -4 q 936 -28 947 -28 q 894 -16 925 -28 q 803 33 864 -4 q 676 126 743 71 q 558 21 624 57 q 393 -28 493 -15 q 148 51 247 -28 q 49 257 49 129 q 99 435 49 361 q 244 588 150 510 q 165 811 165 717 q 234 958 165 906 q 411 1022 303 1010 q 550 974 489 1022 q 611 857 611 926 q 574 771 611 808 q 522 726 544 742 q 499 710 500 711 l 472 733 q 521 843 521 783 q 482 944 521 903 q 391 985 443 985 q 309 950 339 985 q 279 854 279 915 q 316 719 279 793 q 422 564 353 644 q 665 311 531 439 l 704 274 q 835 668 803 468 q 735 676 793 676 q 729 697 729 688 q 735 718 729 707 m 424 38 q 633 163 539 38 q 276 540 389 388 q 208 439 226 483 q 189 332 189 394 q 201 223 189 269 q 240 133 214 176 q 313 64 265 90 q 424 38 360 38 z "},"'":{"ha":389,"x_min":139,"x_max":243,"o":"m 139 1167 q 191 1176 168 1176 q 243 1167 214 1176 l 200 796 q 174 793 181 793 q 151 796 168 793 l 139 1167 z "},"(":{"ha":471,"x_min":111,"x_max":415,"o":"m 415 1229 q 228 508 228 924 q 415 -217 228 92 q 378 -240 410 -240 q 181 93 251 -78 q 111 508 111 264 q 181 922 111 751 q 378 1256 251 1093 q 403 1249 393 1256 q 415 1229 413 1242 z "},")":{"ha":471,"x_min":56,"x_max":360,"o":"m 56 -217 q 243 508 243 92 q 56 1229 243 924 q 66 1247 56 1238 q 93 1256 76 1256 q 290 922 219 1093 q 360 508 360 751 q 290 93 360 264 q 93 -240 219 -78 q 69 -234 79 -240 q 56 -217 60 -228 z "},"*":{"ha":560,"x_min":4,"x_max":556,"o":"m 361 1211 q 301 985 315 1110 l 489 1093 q 556 1021 526 1043 l 551 1006 q 324 944 425 990 l 511 833 q 479 740 488 783 l 467 738 q 301 906 394 835 l 301 689 q 207 667 244 682 l 196 678 q 257 906 238 771 l 68 800 q 4 872 35 847 q 7 888 4 882 q 232 943 117 897 l 46 1050 q 74 1143 64 1093 l 89 1149 q 256 983 157 1054 l 256 1200 q 350 1222 313 1207 l 361 1211 z "},"+":{"ha":790,"x_min":82,"x_max":710,"o":"m 435 329 q 446 46 435 167 q 426 33 440 33 q 354 51 414 38 l 354 329 q 94 318 221 329 q 82 339 82 324 q 100 406 92 367 l 354 406 q 340 693 354 540 q 363 706 346 706 q 402 693 376 697 q 435 688 428 689 l 435 406 q 696 418 569 406 q 710 396 710 413 q 690 329 701 379 l 435 329 z "},",":{"ha":326,"x_min":74,"x_max":256,"o":"m 256 51 q 215 -70 256 3 q 106 -210 175 -143 q 76 -189 83 -210 q 149 -22 149 -85 q 74 76 104 14 q 182 156 128 135 q 228 103 207 135 q 256 51 250 72 z "},"-":{"ha":528,"x_min":65,"x_max":463,"o":"m 282 382 q 450 394 371 382 q 463 374 463 389 q 444 307 453 346 l 246 307 q 78 294 157 307 q 65 315 65 300 q 83 382 75 343 l 282 382 z "},".":{"ha":328,"x_min":74,"x_max":257,"o":"m 154 -28 q 74 76 100 18 q 182 156 124 129 q 257 50 239 101 q 213 8 244 31 q 154 -28 181 -15 z "},"/":{"ha":501,"x_min":18,"x_max":456,"o":"m 456 1154 l 276 515 q 111 -135 126 -39 q 88 -143 101 -143 q 18 -100 71 -129 l 199 539 q 363 1189 349 1090 q 388 1196 372 1196 q 456 1154 399 1186 z "},":":{"ha":328,"x_min":74,"x_max":257,"o":"m 154 450 q 74 554 100 496 q 182 633 124 607 q 257 528 239 579 q 213 485 244 508 q 154 450 181 463 m 154 -28 q 74 76 100 18 q 182 156 124 129 q 257 50 239 101 q 213 8 244 31 q 154 -28 181 -15 z "},";":{"ha":339,"x_min":74,"x_max":268,"o":"m 256 51 q 215 -70 256 3 q 106 -210 175 -143 q 76 -189 83 -210 q 149 -22 149 -85 q 74 76 104 14 q 182 156 128 135 q 228 103 207 135 q 256 51 250 72 m 165 450 q 85 554 111 496 q 193 633 135 607 q 268 528 250 579 q 224 485 256 508 q 165 450 192 463 z "},"<":{"ha":688,"x_min":56,"x_max":632,"o":"m 367 217 l 56 350 l 56 394 l 367 528 q 611 639 531 597 q 626 624 622 639 q 632 550 626 579 l 193 372 l 632 194 q 626 121 626 165 q 611 106 624 108 q 367 217 531 147 z "},"=":{"ha":776,"x_min":56,"x_max":721,"o":"m 385 532 q 707 544 572 532 q 721 522 721 539 q 701 449 717 514 l 388 449 q 68 438 204 449 q 56 457 56 443 q 74 532 61 469 l 385 532 m 385 283 q 707 296 572 283 q 721 274 721 290 q 701 200 717 265 l 388 200 q 68 189 204 200 q 56 210 56 194 q 74 283 61 222 l 385 283 z "},">":{"ha":688,"x_min":56,"x_max":632,"o":"m 632 350 l 321 217 q 76 106 129 132 q 61 121 65 106 q 56 194 61 165 l 494 372 l 56 550 q 61 624 61 579 q 76 639 64 636 q 321 528 157 597 l 632 394 l 632 350 z "},"?":{"ha":578,"x_min":94,"x_max":504,"o":"m 178 -28 q 99 76 125 15 q 206 156 144 128 q 282 50 261 103 q 236 7 268 31 q 178 -28 204 -17 m 163 444 q 159 468 163 444 q 156 500 156 492 q 161 508 156 508 q 179 511 171 508 q 348 559 272 526 q 433 639 424 592 q 440 700 440 667 q 238 901 440 847 q 195 913 224 906 q 153 924 167 919 q 125 933 140 928 q 94 957 94 943 q 101 1019 94 965 q 107 1124 107 1072 q 128 1128 119 1128 q 150 1122 138 1128 q 157 1072 150 1092 q 245 1032 186 1053 q 324 1001 304 1011 q 504 718 504 914 q 499 651 504 701 q 408 511 458 557 q 265 444 357 465 q 233 272 257 421 q 208 267 224 267 q 179 271 192 267 q 163 444 171 397 z "},"@":{"ha":1256,"x_min":89,"x_max":1185,"o":"m 643 -268 q 239 -130 389 -268 q 89 256 89 8 q 176 560 89 418 q 408 783 263 701 q 717 865 553 865 q 1056 742 926 865 q 1185 411 1185 618 q 1121 156 1185 265 q 888 -10 1050 35 q 772 86 800 -10 q 743 290 749 169 q 532 17 633 68 q 440 79 481 26 q 399 216 399 132 q 428 373 399 300 q 498 486 458 446 q 586 553 538 526 q 717 601 661 596 q 788 611 772 606 l 851 633 q 867 626 864 633 q 851 229 851 408 q 874 101 851 158 q 922 43 896 43 q 1017 153 967 43 q 1068 413 1068 263 q 969 710 1068 603 q 685 817 869 817 q 443 734 551 817 q 278 524 335 651 q 221 257 221 397 q 333 -86 221 43 q 649 -215 444 -215 q 883 -182 775 -215 q 899 -224 899 -194 q 643 -268 768 -268 m 567 126 q 683 238 618 126 q 756 457 747 349 l 763 550 q 653 544 700 550 q 561 456 607 539 q 515 246 515 372 q 531 160 515 193 q 567 126 546 126 z "},"A":{"ha":1038,"x_min":-10,"x_max":1044,"o":"m 1040 -4 l 878 0 q 693 -11 772 0 q 685 13 685 0 l 688 24 q 763 52 742 36 q 785 88 785 68 q 765 165 785 107 l 683 374 q 504 378 608 378 l 306 374 l 271 285 q 201 40 201 113 q 299 39 233 39 q 301 17 301 29 q 299 -4 301 4 l 151 0 q -1 -11 64 0 q -10 13 -10 -1 l -7 24 q 97 85 64 43 q 194 274 129 126 l 538 1051 l 560 1051 l 879 235 q 923 133 888 208 q 968 43 958 57 q 1040 39 1007 39 q 1044 17 1044 29 q 1040 -4 1044 4 m 326 428 l 504 422 q 665 426 600 422 l 504 851 l 326 428 z "},"B":{"ha":946,"x_min":49,"x_max":840,"o":"m 68 1004 l 279 1000 l 493 1000 q 706 942 625 1000 q 788 771 788 883 q 726 618 788 681 q 600 539 665 556 q 777 450 714 518 q 840 272 840 382 q 728 72 840 144 q 450 0 617 0 q 56 -11 146 0 q 49 13 49 -3 l 50 24 q 144 75 122 40 q 168 144 163 103 q 185 489 185 271 q 160 954 185 946 q 68 961 133 961 q 65 983 65 971 q 68 1004 65 996 m 304 517 l 304 239 q 313 56 304 108 q 429 50 363 50 q 642 99 572 50 q 713 256 713 147 q 643 438 713 365 q 463 510 574 510 l 404 510 q 396 533 396 519 l 404 561 l 444 561 q 667 754 667 561 q 608 901 667 850 q 455 951 550 951 q 321 946 360 951 q 304 517 304 879 z "},"C":{"ha":1056,"x_min":89,"x_max":968,"o":"m 604 -28 q 227 122 365 -28 q 89 498 89 271 q 239 874 89 725 q 622 1022 389 1022 q 950 976 807 1022 q 957 966 957 972 q 953 922 957 960 q 933 733 935 793 q 904 729 913 729 q 879 735 896 729 q 854 878 867 831 q 753 944 818 917 q 604 972 688 972 q 342 861 446 972 q 239 557 239 750 q 284 301 239 421 q 419 105 329 182 q 632 28 508 28 q 851 94 756 28 q 917 243 878 139 q 968 229 950 243 q 939 28 949 129 q 921 10 938 13 q 604 -28 788 -28 z "},"D":{"ha":1144,"x_min":28,"x_max":1056,"o":"m 522 -6 l 317 0 q 35 -11 128 0 q 28 11 28 -3 l 29 24 q 150 78 126 43 q 165 109 163 97 q 176 204 168 121 q 185 489 183 288 l 185 650 q 161 954 185 946 q 65 961 121 961 q 61 983 61 971 q 65 1004 61 996 l 221 1000 l 354 1000 l 522 1006 q 919 866 782 1006 q 1056 506 1056 726 q 906 140 1056 286 q 522 -6 756 -6 m 428 951 q 324 946 361 951 q 307 676 307 885 l 307 239 q 313 74 307 115 q 507 50 406 50 q 808 162 710 50 q 906 482 906 274 q 797 806 906 671 q 647 912 742 872 q 428 951 551 951 z "},"E":{"ha":901,"x_min":49,"x_max":810,"o":"m 599 -6 l 361 0 l 288 0 q 56 -11 126 0 q 49 13 49 -3 l 50 24 q 144 75 122 40 q 168 144 163 103 q 185 489 185 271 q 160 954 185 946 q 68 961 133 961 q 65 983 65 971 q 68 1004 65 996 l 279 1000 l 439 1000 l 767 1010 q 790 994 790 1010 q 786 961 790 993 q 767 768 772 875 q 737 760 750 760 q 713 765 724 760 q 688 922 696 892 q 460 951 561 951 q 321 946 360 951 q 304 550 304 857 q 422 544 326 544 q 565 550 518 544 q 634 572 613 556 q 667 640 656 589 q 710 632 696 640 q 696 515 696 553 l 699 394 q 674 388 689 388 l 654 390 l 639 482 q 464 494 564 494 q 304 488 364 494 l 304 239 q 313 56 304 108 q 411 50 356 50 q 694 88 554 50 q 735 174 715 121 q 757 238 754 228 q 779 239 765 239 q 810 226 793 239 q 779 22 789 128 q 761 4 778 6 q 599 -6 700 -6 z "},"F":{"ha":876,"x_min":49,"x_max":810,"o":"m 696 500 l 699 379 q 671 374 679 374 l 654 376 l 639 467 q 466 479 589 479 q 304 472 343 479 l 304 311 q 315 51 304 168 q 489 43 379 43 q 494 16 494 29 q 489 -4 494 3 l 249 0 q 56 -11 143 0 q 49 13 49 -3 l 50 24 q 144 75 122 40 q 168 144 163 103 q 185 461 185 271 q 160 954 185 944 q 68 961 133 961 q 65 983 65 971 q 68 1004 65 996 l 279 1000 l 457 1000 q 785 1010 457 1000 q 810 994 810 1010 q 806 961 810 993 q 785 768 790 861 q 755 760 768 760 q 732 765 742 760 q 706 922 717 881 q 473 951 579 951 q 321 946 367 951 q 304 535 304 882 q 422 529 338 529 q 560 535 507 529 q 635 558 613 540 q 667 628 658 575 q 710 618 693 628 q 696 500 696 539 z "},"G":{"ha":1135,"x_min":89,"x_max":1043,"o":"m 688 406 l 910 401 q 1038 413 975 401 q 1043 389 1043 399 l 1040 372 q 982 282 988 350 q 972 15 972 188 q 779 -6 889 15 q 604 -28 669 -28 q 227 122 365 -28 q 89 498 89 271 q 239 874 89 725 q 622 1022 389 1022 q 957 982 811 1022 q 967 972 967 979 q 966 954 967 965 q 963 923 965 943 q 960 878 961 903 q 957 739 957 825 q 931 733 947 733 q 904 738 914 733 q 868 878 879 850 q 602 972 758 972 q 342 861 446 972 q 239 557 239 750 q 284 301 239 421 q 419 105 329 182 q 627 28 508 28 q 854 78 746 28 l 854 163 q 846 351 854 267 q 688 360 775 360 q 682 382 682 369 l 688 406 z "},"H":{"ha":1165,"x_min":49,"x_max":1101,"o":"m 861 489 l 601 496 q 304 489 485 496 l 304 233 q 321 43 304 44 q 415 39 346 39 q 418 17 418 29 q 415 -4 418 4 l 278 0 q 56 -11 143 0 q 49 13 49 -3 l 50 24 q 144 75 122 40 q 168 144 163 103 q 185 535 185 271 l 185 767 q 168 957 185 956 q 74 961 143 961 q 71 983 71 971 q 74 1004 71 996 q 217 1000 74 1004 q 415 1011 346 1000 q 421 976 421 1000 q 358 945 381 967 q 331 906 336 924 q 304 550 310 839 q 601 544 443 544 l 861 550 l 861 767 q 844 957 861 956 q 750 961 818 961 q 746 983 746 971 q 750 1004 746 996 l 893 1000 q 1090 1011 1022 1000 q 1096 976 1096 999 q 1033 944 1056 965 q 1005 905 1011 924 q 996 856 999 886 q 979 528 979 708 l 979 233 q 996 43 979 44 q 1099 39 1022 39 q 1101 17 1101 29 q 1099 -4 1101 4 l 954 0 q 713 -11 806 0 q 706 13 706 -3 l 707 24 q 815 67 790 43 q 844 144 839 90 q 861 489 860 286 z "},"I":{"ha":494,"x_min":32,"x_max":457,"o":"m 68 1004 l 249 1000 l 426 1004 q 429 983 429 996 l 426 961 q 333 957 365 961 q 310 644 310 954 l 310 418 q 316 165 310 286 q 332 43 322 44 q 454 39 368 39 q 457 17 457 29 q 454 -4 457 4 l 278 0 q 39 -11 132 0 q 32 13 32 -4 l 33 24 q 144 69 124 43 q 161 99 157 86 q 168 138 165 111 q 185 489 185 246 l 185 644 q 161 957 185 954 q 68 961 129 961 q 65 983 65 971 q 68 1004 65 996 z "},"J":{"ha":490,"x_min":-7,"x_max":413,"o":"m 54 1004 l 228 1000 q 406 1011 344 1000 q 413 988 413 1003 l 411 976 q 332 856 350 965 q 318 549 318 793 l 318 117 q 290 -125 318 -53 q 157 -278 261 -197 l 18 -383 q -7 -351 -7 -378 l 71 -272 q 173 -77 151 -190 q 194 232 194 36 l 194 601 q 172 957 194 954 q 54 961 135 961 q 50 983 50 971 q 54 1004 50 996 z "},"K":{"ha":982,"x_min":28,"x_max":989,"o":"m 439 -4 l 254 0 q 35 -11 117 0 q 28 13 28 -3 l 29 24 q 137 67 113 43 q 168 144 161 90 q 185 489 185 304 l 185 650 q 161 957 185 954 q 65 961 129 961 q 61 983 61 971 q 65 1004 61 996 l 221 1000 q 417 1011 350 1000 q 422 976 422 1004 q 353 942 374 969 q 324 874 333 915 q 310 549 310 801 l 310 293 q 318 46 310 133 q 439 39 356 39 q 443 17 443 29 l 439 -4 m 985 43 q 989 19 989 35 q 988 0 989 4 q 834 -16 896 -4 q 765 -28 772 -28 q 467 381 722 -28 q 354 557 365 542 l 535 728 q 710 946 661 846 q 601 963 685 960 q 600 978 600 968 l 606 1006 q 776 1000 746 1000 q 889 1007 806 1000 q 900 972 900 997 q 756 867 817 921 l 472 617 q 811 110 735 199 q 900 46 863 50 q 985 43 924 43 z "},"L":{"ha":828,"x_min":49,"x_max":828,"o":"m 617 -6 l 379 0 l 288 0 q 56 -11 131 0 q 49 13 49 -3 l 50 24 q 144 75 122 40 q 173 181 163 103 q 183 485 183 260 l 183 765 q 165 957 183 956 q 82 961 139 961 q 78 983 78 971 q 82 1004 78 996 l 215 1000 q 413 1011 343 1000 q 421 989 421 1000 l 418 976 q 343 938 361 961 q 321 872 325 915 q 304 501 304 701 l 304 239 q 313 56 304 108 q 429 50 363 50 q 713 88 572 50 q 753 173 735 119 q 776 238 772 226 q 797 239 783 239 q 828 226 811 239 q 810 104 822 197 q 794 8 797 11 q 617 -6 776 -6 z "},"M":{"ha":1410,"x_min":51,"x_max":1360,"o":"m 1356 -4 l 1211 0 q 968 -11 1061 0 q 961 13 961 -3 l 963 24 q 1068 65 1046 43 q 1094 160 1090 88 q 1099 310 1099 232 q 1090 550 1099 389 l 1079 778 q 880 376 1015 660 q 704 -28 744 93 l 665 -28 q 318 718 394 585 l 260 818 q 254 398 254 646 q 271 43 254 150 q 379 39 301 39 q 383 15 383 28 q 379 -4 383 1 l 222 0 q 61 -11 126 0 q 54 13 54 -3 l 56 24 q 147 68 124 39 q 176 144 169 97 q 215 893 210 382 q 133 960 178 940 q 56 971 128 961 l 51 990 q 56 1013 51 1004 l 278 1018 q 349 944 299 1018 q 450 781 400 871 q 566 549 500 692 q 676 301 632 406 q 726 188 721 197 q 897 551 744 228 q 1099 1000 1050 874 q 1322 1013 1239 1000 q 1329 978 1329 1000 q 1236 932 1260 963 q 1210 867 1213 901 q 1207 736 1207 832 q 1216 411 1207 640 q 1244 43 1225 182 q 1356 39 1271 39 q 1360 17 1360 29 q 1356 -4 1360 4 z "},"N":{"ha":1194,"x_min":40,"x_max":1140,"o":"m 367 -4 l 210 0 q 49 -11 114 0 q 40 13 40 0 l 43 24 q 139 75 115 40 q 163 144 157 103 q 194 907 188 325 q 133 956 160 944 q 49 971 107 967 q 44 992 44 979 q 49 1013 44 1006 l 276 1018 q 557 732 318 1018 q 956 218 693 571 q 947 605 951 326 q 929 957 942 883 q 817 961 899 961 q 811 984 811 972 q 815 1004 811 996 l 972 1000 q 1133 1011 1068 1000 q 1140 988 1140 1003 l 1139 976 q 1049 933 1071 961 q 1022 856 1026 906 q 1004 -21 1004 567 l 971 -35 l 940 4 q 421 668 675 354 q 239 865 321 790 q 240 419 239 678 q 257 43 240 161 q 367 39 289 39 q 371 17 371 28 q 367 -4 371 6 z "},"O":{"ha":1171,"x_min":89,"x_max":1082,"o":"m 1082 496 q 1055 317 1082 399 q 987 184 1028 236 q 892 91 946 132 q 788 28 838 50 q 689 -7 739 7 q 578 -28 615 -28 q 232 123 375 -28 q 89 496 89 274 q 116 674 89 593 q 184 808 143 756 q 279 902 225 861 q 383 965 333 943 q 482 1001 433 988 q 594 1022 554 1022 q 939 869 796 1022 q 1082 496 1082 715 m 621 44 q 859 151 778 44 q 940 424 940 257 q 894 672 940 553 q 757 872 847 792 q 554 951 667 951 q 313 842 397 951 q 229 572 229 733 q 277 323 229 443 q 417 124 325 203 q 621 44 508 44 z "},"P":{"ha":913,"x_min":49,"x_max":821,"o":"m 68 1004 l 279 1000 l 457 1000 q 724 928 626 1000 q 821 702 821 856 q 717 471 821 549 q 444 393 613 393 q 367 394 393 393 q 360 418 360 403 l 367 446 q 439 444 385 444 q 624 510 550 444 q 699 685 699 576 q 633 873 699 794 q 469 951 567 951 q 321 946 372 951 q 308 842 313 922 q 304 410 304 761 l 304 239 q 311 51 304 125 q 489 43 376 43 q 494 16 494 29 q 489 -4 494 3 l 249 0 q 56 -11 143 0 q 49 13 49 -3 l 50 24 q 144 75 122 40 q 168 144 163 103 q 185 486 185 271 q 160 954 185 946 q 68 961 133 961 q 65 983 65 971 q 68 1004 65 996 z "},"Q":{"ha":1171,"x_min":89,"x_max":1232,"o":"m 1082 496 q 796 33 1082 171 q 861 -46 818 4 q 937 -127 904 -96 q 1000 -178 969 -158 q 1107 -229 1040 -203 q 1217 -212 1144 -229 q 1232 -254 1232 -226 q 1164 -276 1217 -258 q 1013 -321 1032 -321 q 739 -104 936 -321 q 663 -12 713 -76 q 578 -28 600 -28 q 232 123 375 -28 q 89 496 89 274 q 116 674 89 593 q 184 808 143 756 q 279 902 225 861 q 383 965 333 943 q 482 1001 433 988 q 594 1022 554 1022 q 939 869 796 1022 q 1082 496 1082 715 m 621 44 q 859 151 778 44 q 940 424 940 257 q 894 672 940 553 q 757 872 847 792 q 554 951 667 951 q 313 842 397 951 q 229 572 229 733 q 277 323 229 443 q 417 124 325 203 q 621 44 508 44 z "},"R":{"ha":978,"x_min":49,"x_max":985,"o":"m 68 1004 l 279 1000 l 444 1000 q 692 933 601 1000 q 782 724 782 865 q 726 548 782 617 q 572 451 669 479 q 694 258 621 367 q 812 99 767 150 q 888 44 857 49 q 982 39 918 39 q 985 17 985 28 q 982 -4 985 7 q 824 -19 881 -10 q 758 -28 768 -28 q 716 8 747 -28 q 643 106 685 43 q 567 224 601 169 q 491 348 533 278 q 439 433 449 418 q 301 439 350 433 l 301 232 q 311 49 301 149 q 433 39 354 39 q 438 15 438 28 q 433 -4 438 1 l 249 0 q 56 -11 143 0 q 49 13 49 -3 l 50 24 q 144 75 122 40 q 168 144 163 103 q 185 486 185 271 q 160 954 185 946 q 68 961 133 961 q 63 979 63 971 q 68 1004 63 988 m 661 709 q 661 760 661 709 q 603 883 661 811 q 450 956 546 956 q 317 950 354 956 q 301 489 301 889 q 440 485 351 485 q 595 546 529 485 q 661 709 661 607 z "},"S":{"ha":888,"x_min":93,"x_max":794,"o":"m 643 917 q 464 976 550 976 q 325 929 378 976 q 272 810 272 882 q 329 686 272 739 q 513 572 386 633 q 769 361 715 474 q 794 249 794 308 q 685 46 794 119 q 429 -28 576 -28 q 264 -12 350 -28 q 140 18 178 3 q 93 265 126 126 q 131 278 118 278 q 151 276 144 278 q 224 129 190 179 q 275 80 253 99 q 348 42 297 61 q 471 22 399 22 q 601 72 543 22 q 660 200 660 122 q 638 290 660 263 q 605 332 615 318 q 565 365 594 346 q 525 390 536 383 q 477 417 514 397 q 412 452 440 436 q 364 479 383 468 q 304 515 344 490 q 247 553 264 539 q 204 593 231 568 q 167 639 178 618 q 139 751 139 699 q 246 951 139 879 q 504 1022 353 1022 q 643 1006 567 1022 q 761 971 719 989 q 738 768 749 922 q 708 761 724 761 q 682 767 693 761 q 665 842 681 783 q 643 917 650 901 z "},"T":{"ha":949,"x_min":10,"x_max":932,"o":"m 700 -4 l 472 0 q 224 -11 322 0 q 217 13 217 -3 l 218 24 q 344 63 314 39 q 385 143 375 88 q 404 488 404 246 q 399 825 404 729 q 385 944 393 921 q 300 951 350 951 q 118 921 183 951 l 57 768 q 10 779 25 768 l 32 994 q 56 1010 32 1010 l 300 1000 l 640 1000 l 907 1010 q 932 994 932 1010 q 910 771 910 872 q 882 765 899 765 q 856 771 865 765 q 828 921 831 908 q 638 951 758 951 q 550 944 583 951 q 540 829 546 932 q 533 565 533 726 l 533 317 q 556 49 533 163 q 700 39 619 39 q 704 15 704 28 q 700 -4 704 1 z "},"U":{"ha":1151,"x_min":65,"x_max":1118,"o":"m 68 1004 l 201 1000 q 424 1011 349 1000 q 432 988 432 1000 l 429 976 q 336 933 356 960 q 315 872 321 914 q 299 411 299 710 q 371 132 299 232 q 596 32 443 32 q 848 130 778 32 q 918 429 918 228 l 918 601 q 904 957 918 854 q 785 961 872 961 q 782 985 782 972 q 785 1004 782 999 l 949 1000 q 1111 1011 1054 1000 q 1118 988 1118 1003 l 1117 976 q 1000 832 1010 953 q 985 394 985 653 q 884 81 985 190 q 585 -28 783 -28 q 401 -1 479 -28 q 278 65 322 25 q 208 164 235 106 q 174 274 182 222 q 167 388 167 326 l 167 600 q 154 957 167 713 q 68 961 128 961 q 65 983 65 971 q 68 1004 65 996 z "},"V":{"ha":1124,"x_min":4,"x_max":1121,"o":"m 6 976 q 4 991 4 983 q 11 1011 4 999 q 217 1000 100 1000 q 421 1004 333 1000 q 424 983 424 996 l 421 961 q 307 960 340 961 q 341 790 307 907 q 421 561 375 672 l 590 150 l 776 561 q 872 802 832 685 q 913 956 913 919 q 807 961 888 961 q 804 983 804 971 q 807 1004 804 996 q 971 1000 899 1000 q 1113 1011 1043 1000 q 1121 988 1121 1003 l 1118 976 q 1032 928 1064 960 q 925 753 986 882 q 869 631 894 688 q 838 561 844 575 l 557 -54 l 533 -54 l 233 667 q 100 933 149 878 q 6 976 79 957 z "},"W":{"ha":1544,"x_min":0,"x_max":1544,"o":"m 857 999 l 993 1000 q 1115 1006 1063 1000 q 1122 979 1122 997 l 1121 971 q 1071 935 1088 960 q 879 599 1043 899 l 1061 150 l 1224 561 q 1356 956 1340 854 q 1250 961 1329 961 q 1246 981 1246 968 q 1250 1004 1246 994 q 1405 1000 1342 1000 q 1538 1011 1468 1000 q 1544 988 1544 1003 l 1543 976 q 1478 935 1506 963 q 1410 829 1451 907 q 1346 700 1368 751 l 1028 -54 l 1004 -54 l 793 461 l 544 -54 l 521 -54 l 229 667 q 99 932 147 875 q 1 976 76 957 q 0 993 0 982 q 7 1011 0 1004 q 199 1000 96 1000 q 415 1004 301 1000 q 418 985 418 999 l 415 961 q 301 960 335 961 q 417 561 310 840 l 578 150 l 765 528 l 710 667 q 588 935 625 878 q 522 971 571 958 q 521 985 521 974 q 526 1006 521 996 q 713 1000 593 1000 l 857 999 m 750 957 q 849 651 756 871 q 972 957 964 910 q 860 961 910 961 l 750 957 z "},"X":{"ha":1032,"x_min":1,"x_max":1032,"o":"m 21 1013 l 240 1018 q 336 915 261 1018 q 458 726 390 843 q 540 583 525 608 l 593 649 q 627 691 601 660 q 662 733 653 722 q 691 771 671 744 q 722 813 711 797 q 747 854 732 829 q 800 954 776 903 q 671 957 732 957 q 665 981 665 968 q 671 1000 665 993 l 813 1000 q 1004 1011 910 1000 q 1011 989 1011 1003 l 1010 974 q 899 906 956 958 q 740 732 842 853 l 571 529 q 718 279 626 428 q 944 44 857 54 q 1028 43 968 43 q 1032 20 1032 33 q 1029 0 1032 7 q 880 -16 946 -4 q 807 -28 814 -28 q 733 32 786 -28 q 606 209 679 92 q 468 439 532 326 l 396 344 q 206 46 256 160 q 326 43 274 43 q 329 19 329 32 q 326 0 329 6 l 185 0 q 10 -11 104 0 q 1 24 1 1 q 90 82 40 35 q 276 296 139 129 l 439 493 q 296 739 358 633 q 185 894 233 844 q 111 956 138 944 q 21 971 85 967 q 17 992 17 979 q 21 1013 17 1004 z "},"Y":{"ha":1004,"x_min":0,"x_max":1004,"o":"m 4 1013 l 229 1018 q 301 942 243 1018 q 431 735 358 865 q 543 489 504 606 q 606 597 564 525 q 669 706 647 668 q 718 797 690 744 q 783 956 769 892 q 671 961 754 961 q 667 983 667 971 q 671 1004 667 996 q 847 1000 763 1000 q 996 1011 932 1000 q 1004 988 1004 997 l 1001 976 q 915 929 964 965 q 729 694 853 885 q 588 435 606 504 q 576 274 576 406 q 590 49 576 143 q 750 39 647 39 q 754 17 754 29 l 750 -4 l 529 0 q 263 -11 368 0 q 256 13 256 -3 l 257 24 q 419 86 390 44 q 449 243 449 128 q 429 434 449 358 q 316 668 410 510 q 146 910 222 826 q 88 956 115 944 q 4 971 61 968 q 0 994 0 979 q 4 1013 0 1008 z "},"Z":{"ha":1024,"x_min":57,"x_max":960,"o":"m 704 -1 l 449 0 q 67 -17 194 0 q 57 22 57 0 q 133 113 101 68 q 710 946 489 592 l 543 946 q 204 913 322 946 q 178 771 194 879 q 154 765 168 765 q 124 768 140 765 q 100 994 119 868 q 124 1010 100 1010 q 513 1000 124 1010 l 599 1000 q 913 1018 775 1000 q 924 982 924 1004 q 642 604 879 950 q 274 56 404 258 l 413 56 q 647 74 517 56 q 829 110 778 92 q 907 246 863 154 q 960 235 938 246 q 917 22 933 129 q 890 2 915 6 q 704 -1 864 -1 z "},"[":{"ha":568,"x_min":213,"x_max":488,"o":"m 318 610 l 318 332 q 324 -100 318 -68 q 342 -145 329 -132 q 382 -162 356 -158 l 482 -172 q 488 -190 488 -183 l 482 -210 q 233 -274 343 -229 q 213 -261 222 -274 q 228 354 228 -126 l 228 588 q 213 1201 228 1067 q 233 1215 218 1215 q 482 1150 349 1169 q 488 1132 488 1140 q 482 1113 488 1124 q 384 1104 414 1107 q 340 1085 354 1101 q 325 1051 326 1069 q 318 610 318 997 z "},"\\":{"ha":496,"x_min":13,"x_max":450,"o":"m 271 538 l 450 -101 l 383 -143 q 374 -144 379 -144 l 357 -137 q 193 513 333 26 l 13 1154 q 79 1193 64 1179 q 90 1194 83 1194 l 106 1188 q 271 538 131 1025 z "},"]":{"ha":568,"x_min":82,"x_max":356,"o":"m 250 332 l 250 610 q 246 1042 250 1014 q 188 1104 238 1097 l 88 1113 q 82 1129 82 1119 l 88 1150 q 335 1215 219 1169 q 356 1201 347 1215 q 340 588 340 1067 l 340 354 q 356 -261 340 -126 q 335 -274 350 -274 q 88 -210 225 -229 q 82 -190 82 -201 q 88 -172 82 -179 q 185 -163 156 -168 q 227 -144 214 -158 q 242 -117 240 -131 q 250 332 250 -62 z "},"^":{"ha":772,"x_min":56,"x_max":717,"o":"m 365 1189 l 407 1189 q 717 507 497 1007 q 660 483 693 483 l 390 1039 l 113 483 q 56 507 79 483 q 365 1189 275 1007 z "},"_":{"ha":788,"x_min":1,"x_max":789,"o":"m 393 -60 q 776 -46 618 -60 q 789 -68 789 -51 q 771 -135 785 -76 l 394 -135 q 15 -146 172 -135 q 1 -126 1 -140 q 21 -60 13 -99 l 393 -60 z "},"`":{"ha":818,"x_min":276,"x_max":546,"o":"m 515 760 l 276 968 q 354 1039 296 1017 q 517 819 429 931 l 546 783 q 515 760 540 760 z "},"a":{"ha":685,"x_min":65,"x_max":665,"o":"m 549 506 l 544 167 q 610 65 544 65 l 660 67 q 665 44 665 60 l 663 29 q 510 -28 556 10 q 458 10 479 -19 q 433 74 436 40 q 213 -28 322 6 q 115 26 165 -28 q 65 160 65 79 q 83 233 65 200 q 126 278 101 265 q 432 368 229 329 l 432 500 q 408 614 432 576 q 349 651 383 651 q 276 640 315 651 q 222 594 238 628 q 206 500 206 561 q 187 488 206 494 q 140 482 168 482 q 101 495 111 482 q 90 535 90 508 q 163 643 90 585 q 260 681 179 654 q 354 707 342 707 q 501 649 454 707 q 549 506 549 590 m 189 167 q 215 94 189 133 q 276 56 242 56 q 354 79 310 56 q 428 129 399 103 q 432 318 432 211 q 226 251 315 303 q 189 167 189 233 z "},"b":{"ha":818,"x_min":15,"x_max":763,"o":"m 249 122 q 326 60 249 89 q 435 32 404 32 q 580 103 514 32 q 646 268 646 174 q 581 511 646 413 q 437 610 515 610 q 249 522 358 610 l 249 122 m 763 321 q 717 156 763 228 q 606 46 672 83 q 372 -28 476 -28 q 182 6 336 -28 l 128 -28 q 107 -15 114 -28 q 133 166 128 61 q 139 610 139 271 l 139 938 q 125 1066 139 1029 q 67 1110 111 1103 l 18 1115 q 15 1132 15 1126 l 18 1150 q 132 1177 93 1164 q 256 1243 171 1190 q 276 1229 268 1243 q 249 582 249 1067 q 500 707 418 681 q 683 580 604 685 q 763 321 763 475 z "},"c":{"ha":661,"x_min":56,"x_max":624,"o":"m 400 707 q 622 626 535 707 q 594 576 618 603 q 539 543 569 550 q 450 624 494 596 q 341 651 406 651 q 224 567 276 651 q 171 394 171 483 q 194 233 171 304 q 272 114 217 163 q 408 65 328 65 q 611 118 488 65 q 624 90 624 111 l 489 -1 q 438 -19 475 -10 q 376 -28 400 -28 q 138 75 219 -28 q 56 333 56 178 q 89 497 56 425 q 167 606 122 568 q 264 669 211 644 q 400 707 349 707 z "},"d":{"ha":839,"x_min":56,"x_max":807,"o":"m 688 346 q 694 128 688 161 q 751 65 706 65 q 801 67 768 65 q 807 43 807 57 l 806 29 q 667 -17 711 13 l 650 -28 q 601 11 629 -28 q 574 99 574 50 q 315 -28 465 29 q 135 98 214 -7 q 56 340 56 203 q 90 499 56 429 q 172 606 125 569 q 275 668 219 643 q 415 707 361 707 q 576 685 421 707 l 576 938 q 547 1092 576 1064 q 507 1110 532 1107 l 457 1115 q 451 1132 451 1126 l 457 1150 q 572 1179 517 1161 q 693 1243 628 1200 q 715 1229 710 1243 q 688 346 688 1124 m 172 393 q 237 169 172 267 q 381 71 301 71 q 576 157 461 71 l 576 556 q 482 622 576 594 q 350 649 388 649 q 232 569 292 649 q 172 393 172 489 z "},"e":{"ha":718,"x_min":65,"x_max":663,"o":"m 417 72 q 618 133 531 72 q 640 104 638 126 l 490 -1 q 342 -28 457 -28 q 146 76 226 -28 q 65 338 65 179 q 153 588 65 496 q 361 707 240 679 q 547 636 467 707 q 615 528 596 594 q 654 510 619 511 q 663 490 663 500 q 660 468 663 479 q 179 389 415 411 q 278 122 179 211 q 417 72 333 72 m 504 496 q 511 506 511 500 q 494 545 511 513 q 433 615 476 578 q 343 651 390 651 q 274 638 296 651 q 185 446 196 585 q 356 462 260 446 q 504 496 451 478 z "},"f":{"ha":489,"x_min":18,"x_max":701,"o":"m 443 -4 l 251 0 q 40 -11 136 0 q 33 13 33 -3 l 35 24 q 143 94 125 42 q 165 576 165 157 l 165 622 l 28 621 q 18 638 18 626 q 33 685 25 651 l 167 685 q 176 810 168 707 q 219 986 183 914 q 297 1095 254 1058 q 392 1156 340 1132 q 531 1189 467 1189 q 701 1138 596 1189 q 677 1076 696 1106 q 629 1035 658 1046 q 451 1129 513 1129 q 353 1050 403 1129 q 293 877 303 971 q 282 685 283 783 q 465 694 388 685 q 474 676 474 689 q 465 648 468 665 q 460 626 461 631 l 279 624 l 279 415 q 296 44 279 46 q 443 39 353 39 q 449 17 449 28 q 443 -4 449 7 z "},"g":{"ha":782,"x_min":35,"x_max":765,"o":"m 293 82 q 244 30 244 56 q 271 -16 244 4 q 349 -40 297 -36 l 551 -61 q 765 -261 765 -82 q 629 -446 765 -364 q 329 -528 493 -528 q 121 -459 207 -528 q 35 -285 35 -390 q 51 -257 35 -269 l 254 -122 q 124 26 124 -75 q 151 56 124 38 q 340 154 213 92 q 146 238 215 163 q 76 402 76 314 q 110 551 76 490 q 192 643 143 611 q 376 707 292 707 q 483 692 436 707 q 550 678 531 678 l 746 711 q 763 662 763 689 q 754 618 763 635 q 585 622 699 621 q 648 537 625 586 q 671 440 671 488 q 616 286 669 347 q 433 156 563 225 l 293 82 m 161 -303 q 161 -327 161 -303 q 222 -406 161 -351 q 397 -461 282 -461 q 583 -410 513 -461 q 654 -279 654 -360 q 494 -149 654 -164 q 311 -135 404 -140 l 206 -218 q 161 -303 161 -256 m 196 457 q 196 410 196 457 q 252 281 196 364 q 386 199 308 199 q 506 255 464 199 q 549 411 549 311 q 497 586 549 511 q 363 661 444 661 q 239 606 282 661 q 196 457 196 550 z "},"h":{"ha":868,"x_min":24,"x_max":826,"o":"m 346 -4 l 229 0 q 33 -11 121 0 q 26 13 26 -3 l 28 24 q 105 62 85 36 q 135 147 125 88 q 146 582 146 206 l 146 938 q 117 1092 146 1064 q 78 1110 101 1107 l 28 1115 q 24 1133 24 1122 q 28 1150 24 1143 q 181 1194 126 1168 q 263 1243 217 1213 q 285 1229 276 1243 q 257 578 257 1056 q 539 707 433 675 q 675 640 629 707 q 721 461 721 574 l 718 283 q 739 42 718 46 q 821 39 760 39 q 826 21 826 29 q 821 -4 826 13 l 693 0 q 510 -11 578 0 q 501 13 501 0 l 504 24 q 581 61 561 36 q 603 121 600 86 q 607 261 607 156 q 606 392 607 367 q 602 459 606 418 q 590 522 599 500 q 567 567 581 543 q 468 610 539 610 q 311 553 397 610 q 279 533 299 546 q 257 518 260 519 q 256 371 256 449 q 273 44 256 50 q 346 39 290 39 q 350 17 350 29 q 346 -4 350 4 z "},"i":{"ha":440,"x_min":46,"x_max":378,"o":"m 374 -4 l 249 0 q 65 -11 151 0 q 57 13 57 0 l 60 24 q 140 67 119 38 q 164 120 156 89 q 172 300 172 151 l 172 433 q 165 553 172 519 q 142 597 157 586 q 101 611 126 608 l 50 615 q 46 633 46 621 l 50 651 q 167 683 122 667 q 274 729 213 699 q 294 713 289 729 q 278 263 278 618 q 283 122 278 199 q 296 43 288 44 q 374 39 317 39 q 378 17 378 29 q 374 -4 378 4 m 243 888 q 172 979 193 922 q 217 1020 189 999 q 267 1050 246 1042 q 335 957 319 1011 q 243 888 296 907 z "},"j":{"ha":407,"x_min":-17,"x_max":324,"o":"m 154 424 q 142 558 154 518 q 82 601 129 597 q 29 606 63 604 q 26 626 26 615 q 29 643 26 638 q 146 672 85 653 q 263 721 236 707 q 283 707 283 721 q 265 263 265 606 l 265 -78 q 237 -299 265 -219 q 122 -444 208 -378 l 6 -533 q -17 -506 -17 -526 l 44 -444 q 138 -271 121 -368 q 154 113 154 -174 l 154 424 m 232 888 q 161 979 182 922 q 206 1020 178 999 q 256 1050 235 1042 q 324 957 308 1011 q 232 888 285 907 z "},"k":{"ha":749,"x_min":24,"x_max":765,"o":"m 706 40 q 729 39 713 39 q 760 40 746 39 q 765 16 765 26 q 763 0 765 6 q 647 -16 699 -4 q 589 -28 594 -28 q 367 281 557 -28 q 285 415 293 403 l 421 515 q 563 640 497 571 q 460 651 517 650 q 456 672 456 660 l 460 689 q 610 685 574 685 q 715 690 646 685 q 724 657 724 679 l 400 443 q 538 228 472 329 q 640 86 603 128 q 706 40 678 44 m 346 -4 l 229 0 q 33 -11 121 0 q 26 13 26 -3 l 28 24 q 105 62 85 36 q 135 147 125 88 q 146 582 146 206 l 146 938 q 117 1092 146 1064 q 78 1110 101 1107 l 28 1115 q 24 1133 24 1122 q 28 1150 24 1143 q 181 1194 126 1168 q 263 1243 217 1213 q 285 1229 276 1243 q 256 578 256 1047 l 256 415 q 273 44 256 50 q 346 39 290 39 q 350 17 350 29 q 346 -4 350 4 z "},"l":{"ha":415,"x_min":15,"x_max":385,"o":"m 382 -4 l 229 0 q 22 -11 110 0 q 15 13 15 -3 l 17 24 q 103 61 82 36 q 135 146 125 86 q 146 582 146 206 l 146 938 q 117 1092 146 1064 q 78 1110 101 1107 l 28 1115 q 24 1133 24 1122 q 28 1150 24 1143 q 181 1194 126 1168 q 263 1243 217 1213 q 285 1229 276 1243 q 256 578 256 1047 l 256 415 q 274 44 256 50 q 382 39 299 39 q 385 17 385 29 q 382 -4 385 4 z "},"m":{"ha":1271,"x_min":35,"x_max":1221,"o":"m 340 -4 l 244 0 q 61 -11 139 0 q 54 13 54 -3 l 56 24 q 118 51 96 33 q 147 84 140 68 q 158 144 153 100 q 163 332 163 188 q 162 492 163 476 q 160 533 161 508 q 154 571 158 558 q 142 597 150 583 q 94 624 128 624 l 40 622 q 35 643 35 628 l 38 660 q 192 699 132 672 q 215 707 211 707 q 246 668 228 707 q 276 582 264 629 q 546 707 424 665 q 685 579 649 707 q 963 707 831 661 q 1080 640 1038 707 q 1122 461 1122 572 l 1121 278 q 1141 42 1121 46 q 1217 39 1161 39 q 1221 17 1221 29 q 1217 -4 1221 4 l 1089 0 q 924 -11 993 0 q 917 13 917 -3 l 918 24 q 980 60 965 36 q 1001 130 994 85 q 1007 261 1007 175 l 1007 364 q 998 491 1007 443 q 981 553 989 539 q 963 583 974 568 q 901 611 942 611 q 696 522 824 611 q 700 461 700 494 q 699 278 700 461 q 719 42 699 46 q 778 39 739 39 q 782 17 782 29 q 778 -4 782 4 l 672 0 q 489 -11 567 0 q 482 11 482 -3 l 483 24 q 559 61 540 36 q 584 131 578 86 q 590 261 590 175 l 590 364 q 581 491 590 443 q 565 553 572 539 q 546 583 557 568 q 485 611 525 611 q 279 522 400 611 q 274 228 274 413 q 290 43 274 44 q 340 39 306 39 q 346 15 346 28 q 340 -4 346 3 z "},"n":{"ha":876,"x_min":35,"x_max":828,"o":"m 94 624 l 40 622 q 35 640 35 629 q 38 660 35 651 q 192 699 132 672 q 215 707 211 707 q 246 668 228 707 q 276 582 264 629 q 550 707 417 661 q 681 640 635 707 q 726 461 726 572 l 724 278 q 744 42 724 46 q 822 39 765 39 q 828 18 828 29 q 822 -4 828 7 l 694 0 q 511 -11 579 0 q 504 13 504 -3 l 506 24 q 568 51 546 33 q 597 84 590 68 q 607 133 603 100 q 611 260 611 165 l 611 375 q 589 539 611 472 q 567 578 579 565 q 493 611 536 611 q 407 594 450 611 q 342 564 364 578 q 279 522 319 550 q 274 228 274 413 q 292 42 274 44 q 363 39 311 39 q 368 18 368 29 q 363 -4 368 7 l 244 0 q 61 -11 139 0 q 54 13 54 -3 l 56 24 q 118 51 96 33 q 147 84 140 68 q 158 144 153 100 q 163 332 163 188 q 162 492 163 476 q 160 533 161 508 q 154 571 158 558 q 142 597 150 583 q 94 624 128 624 z "},"o":{"ha":818,"x_min":56,"x_max":763,"o":"m 763 339 q 404 -28 763 31 q 156 77 257 -28 q 56 339 56 182 q 415 707 56 650 q 662 600 561 707 q 763 339 763 493 m 435 32 q 635 288 635 32 q 568 540 635 432 q 392 649 501 649 q 233 578 282 649 q 183 378 183 508 q 251 140 183 249 q 435 32 319 32 z "},"p":{"ha":828,"x_min":28,"x_max":772,"o":"m 82 615 l 33 613 q 28 638 28 622 l 29 650 q 174 697 126 667 l 190 707 q 238 672 211 707 q 267 585 264 636 q 383 653 346 635 q 511 707 419 671 q 692 583 613 688 q 772 339 772 478 q 747 197 772 260 q 681 95 722 133 q 594 31 639 57 q 503 -8 550 4 q 383 -28 422 -28 q 260 -7 343 -28 l 260 -85 q 276 -457 260 -456 q 432 -461 318 -461 q 435 -483 435 -471 q 432 -504 435 -496 l 232 -500 q 38 -511 113 -500 q 29 -487 29 -503 l 32 -476 q 109 -437 89 -462 q 135 -374 129 -412 q 149 82 149 -276 l 149 421 q 135 574 149 532 q 82 615 122 615 m 260 110 q 339 60 260 89 q 450 32 418 32 q 597 107 539 32 q 656 298 656 182 q 588 512 656 414 q 443 610 519 610 q 263 522 367 610 q 260 110 260 407 z "},"q":{"ha":835,"x_min":56,"x_max":811,"o":"m 646 671 q 701 707 663 678 q 722 694 713 707 q 701 580 711 667 q 690 432 690 493 l 690 104 q 704 -374 690 -276 q 731 -436 710 -412 q 810 -467 753 -460 q 811 -483 811 -472 q 804 -501 811 -494 q 626 -500 728 -500 q 411 -504 525 -500 q 407 -482 407 -496 q 411 -461 407 -468 q 563 -454 458 -461 q 582 -85 582 -450 l 582 99 q 462 31 507 53 q 322 -28 417 10 q 138 94 221 -7 q 56 310 56 194 q 97 505 56 426 q 203 625 138 583 q 482 707 333 707 q 646 671 497 707 m 382 649 q 237 569 301 649 q 172 373 172 490 q 240 163 172 256 q 390 71 308 71 q 582 157 471 71 l 582 557 q 501 620 582 592 q 382 649 419 649 z "},"r":{"ha":588,"x_min":32,"x_max":588,"o":"m 93 624 l 39 622 q 32 643 32 629 l 35 660 q 189 699 129 672 q 213 707 208 707 q 247 652 228 707 q 271 543 267 597 q 460 707 375 651 q 551 674 515 707 q 588 593 588 642 q 489 538 588 538 q 418 611 468 611 q 279 496 385 611 q 271 160 271 390 q 289 43 271 44 q 401 39 321 39 q 406 17 406 29 q 401 -4 406 4 l 246 0 q 44 -11 132 0 q 38 13 38 -3 l 39 24 q 133 67 113 38 q 156 138 149 89 q 163 332 163 188 q 162 492 163 476 q 160 532 161 507 q 154 569 158 557 q 142 597 150 582 q 93 624 128 624 z "},"s":{"ha":643,"x_min":82,"x_max":557,"o":"m 443 621 q 336 657 401 657 q 201 549 201 657 q 227 483 201 514 q 290 433 253 451 l 399 382 q 557 178 557 306 q 482 28 557 83 q 304 -28 407 -28 q 191 -17 250 -28 q 107 4 132 -7 q 82 178 103 67 q 108 188 97 188 q 122 185 118 188 q 171 78 150 101 q 225 44 186 63 q 317 26 264 26 q 410 56 371 26 q 449 143 449 85 q 433 201 449 182 q 408 231 418 221 q 384 250 397 242 q 362 263 371 258 q 344 273 353 268 q 333 278 335 278 l 229 328 q 94 513 94 392 q 169 659 94 611 q 339 707 244 707 q 442 695 385 707 q 529 671 500 683 q 507 515 519 638 q 488 510 500 510 q 465 513 476 510 q 443 621 454 582 z "},"t":{"ha":500,"x_min":22,"x_max":511,"o":"m 260 299 q 339 68 260 68 q 490 107 397 68 q 511 68 511 100 q 278 -28 410 14 q 178 39 213 -28 q 144 218 144 106 l 144 540 q 135 622 144 622 l 32 621 q 22 635 22 624 q 35 685 29 649 l 133 685 q 144 733 144 685 l 143 851 q 249 938 194 872 q 274 929 265 938 q 261 685 261 783 q 461 694 363 685 q 471 678 471 689 q 457 626 463 664 l 260 624 l 260 299 z "},"u":{"ha":840,"x_min":22,"x_max":807,"o":"m 679 717 q 700 700 692 714 q 688 389 688 606 l 689 190 q 751 65 689 65 l 801 67 q 807 44 807 57 l 806 29 q 708 3 738 18 l 672 -14 q 651 -28 665 -18 q 600 22 621 -17 q 576 99 579 60 q 306 -28 458 25 q 173 38 217 -28 q 129 218 129 104 l 129 483 q 121 603 129 578 q 72 638 113 629 l 26 643 q 22 661 22 651 l 26 678 q 133 696 50 682 l 232 717 q 251 700 243 714 q 240 299 240 624 q 363 71 240 71 q 449 86 406 71 q 515 116 493 101 q 572 157 538 131 q 576 289 576 249 l 576 457 q 569 575 576 542 q 547 620 561 608 q 507 638 532 632 l 461 643 l 457 661 l 461 678 q 512 685 475 681 q 610 701 549 689 q 679 717 671 714 z "},"v":{"ha":689,"x_min":-29,"x_max":688,"o":"m 128 685 l 244 689 q 249 668 249 682 l 244 646 q 183 643 201 646 q 249 428 196 544 l 371 160 l 467 417 q 529 639 517 551 q 440 646 488 646 q 438 669 438 656 q 440 689 438 682 q 562 685 496 685 q 678 693 628 685 q 688 657 688 678 q 638 626 653 642 q 550 478 590 579 l 344 -28 l 324 -28 l 118 456 q 28 629 61 593 q -28 663 10 651 q -29 678 -29 667 q -21 699 -29 689 q 128 685 75 685 z "},"w":{"ha":1104,"x_min":-18,"x_max":1110,"o":"m 863 689 l 983 685 q 1100 694 1033 685 q 1110 660 1110 676 q 1057 628 1072 643 q 961 457 1010 578 l 767 -28 l 746 -28 l 540 490 l 339 -28 l 318 -28 l 118 460 q 34 631 56 610 q -17 663 13 653 q -18 678 -18 667 q -10 699 -18 689 q 139 685 86 685 l 256 689 q 260 668 260 682 l 256 646 q 194 643 213 646 q 257 428 204 564 l 360 163 l 551 685 l 589 685 l 789 163 l 888 415 q 951 639 936 536 q 863 646 924 643 q 860 669 860 656 q 863 689 860 682 z "},"x":{"ha":726,"x_min":11,"x_max":707,"o":"m 461 643 q 457 667 457 654 q 461 685 457 679 l 574 685 q 689 694 626 685 q 699 660 699 683 q 647 632 669 649 q 579 568 625 615 q 513 496 533 521 l 404 368 l 490 232 q 602 65 581 89 q 650 40 624 40 l 704 40 q 707 20 707 29 q 704 0 707 11 q 580 -6 622 0 q 533 -12 538 -12 q 393 178 501 -12 l 326 290 l 296 249 q 172 43 194 113 q 256 39 206 39 q 260 17 260 29 q 256 -4 260 4 q 131 0 196 0 q 21 -7 65 0 q 11 18 11 1 l 13 28 q 76 65 49 38 q 190 201 126 117 l 296 340 l 233 450 q 140 604 168 565 q 83 643 111 643 l 18 643 q 15 669 15 660 q 17 685 15 678 q 138 697 75 688 q 210 707 200 707 q 281 588 217 707 q 378 413 344 468 l 461 515 q 540 639 518 586 q 461 643 518 643 z "},"y":{"ha":743,"x_min":-17,"x_max":743,"o":"m 135 685 l 254 689 q 257 668 257 682 l 254 646 q 193 643 211 646 q 260 428 206 558 l 394 94 l 515 404 q 585 638 576 561 q 482 643 535 643 q 476 663 476 651 q 479 685 476 674 l 615 685 q 732 693 679 685 q 743 657 743 675 q 693 626 708 642 q 611 483 656 586 l 410 0 q 351 -149 392 -43 q 295 -297 311 -256 q 265 -376 279 -339 q 233 -453 251 -412 q 174 -539 196 -539 q 144 -531 167 -539 q 10 -493 85 -510 q 22 -449 10 -465 q 76 -457 72 -457 q 180 -363 117 -457 q 278 -178 243 -269 l 328 -44 l 101 511 q 38 629 67 599 q -17 663 19 651 q -10 699 -17 688 q 135 685 82 685 z "},"z":{"ha":696,"x_min":38,"x_max":654,"o":"m 483 -4 l 267 0 q 49 -7 124 0 q 38 21 38 4 l 38 26 q 85 83 63 51 q 449 635 307 400 l 332 635 q 128 617 188 635 l 111 510 q 92 504 104 504 q 68 507 79 504 q 52 611 64 549 q 40 678 40 674 q 63 690 40 690 l 321 685 l 379 685 q 601 693 526 685 q 611 657 611 682 q 561 600 582 631 l 204 50 l 296 50 q 454 63 369 50 q 574 88 539 75 l 611 183 q 631 188 624 188 q 654 179 638 188 q 633 17 633 26 q 616 1 633 7 q 483 -4 599 -4 z "},"{":{"ha":561,"x_min":149,"x_max":518,"o":"m 232 499 q 305 445 274 474 q 346 400 336 417 l 356 383 q 378 18 356 225 q 426 -212 400 -189 q 503 -265 457 -240 l 518 -274 q 504 -317 518 -297 l 328 -260 q 276 80 301 -121 q 242 322 250 281 q 210 414 233 363 q 149 499 186 465 q 211 588 188 536 q 242 676 235 640 q 275 899 249 711 q 326 1200 301 1086 l 499 1254 q 513 1215 513 1240 q 423 1153 451 1179 q 375 940 394 1128 q 356 600 356 751 q 232 499 326 554 z "},"|":{"ha":394,"x_min":143,"x_max":251,"o":"m 157 94 l 157 1167 q 232 1189 199 1176 q 251 1176 244 1189 q 238 506 238 1040 l 238 -567 q 163 -589 196 -576 q 143 -576 150 -589 q 157 94 157 -440 z "},"}":{"ha":561,"x_min":43,"x_max":413,"o":"m 329 499 q 215 586 242 551 l 206 600 q 186 940 206 751 q 140 1151 167 1128 q 64 1206 113 1176 l 49 1215 q 63 1254 49 1238 l 235 1200 q 286 899 260 1086 q 319 676 313 711 q 350 588 326 640 q 413 499 374 536 q 351 414 375 465 q 319 322 328 363 q 285 78 311 281 q 233 -260 260 -125 l 57 -317 q 43 -274 43 -301 q 131 -217 101 -244 q 183 18 161 -189 q 206 383 206 225 q 251 438 214 403 q 329 499 288 474 z "},"~":{"ha":910,"x_min":56,"x_max":854,"o":"m 215 504 q 168 497 190 504 q 138 486 146 489 q 107 473 129 483 q 76 460 85 463 q 56 494 63 468 q 142 548 92 515 q 220 598 192 581 q 261 615 249 615 q 459 582 318 615 q 696 549 600 549 q 833 593 735 549 q 854 557 847 585 q 769 504 818 536 q 691 455 719 472 q 650 438 663 438 q 453 471 604 438 q 215 504 301 504 z "},"¡":{"ha":465,"x_min":156,"x_max":354,"o":"m 276 415 l 279 -24 q 315 -265 279 -257 l 349 -271 q 351 -287 351 -276 l 346 -306 q 176 -394 285 -328 q 156 -382 156 -394 l 224 410 l 276 415 m 274 707 q 354 604 328 663 q 246 524 303 550 q 171 629 189 578 q 216 672 185 649 q 274 707 247 696 z "},"¢":{"ha":644,"x_min":56,"x_max":601,"o":"m 333 -183 q 317 -174 324 -183 l 322 -24 q 125 97 194 -7 q 56 343 56 200 q 83 500 56 431 q 156 611 110 569 q 324 713 238 688 l 324 854 q 376 868 346 858 q 390 860 386 868 q 385 728 385 782 q 601 646 522 728 q 574 597 597 622 q 522 565 551 572 q 383 667 464 654 l 383 56 l 399 56 q 483 68 446 56 q 588 115 521 81 q 600 88 599 107 l 476 -4 q 383 -28 439 -22 l 383 -168 q 333 -183 367 -172 m 324 668 q 204 578 257 663 q 151 390 151 493 q 196 193 151 286 q 324 68 240 100 l 324 668 z "},"£":{"ha":671,"x_min":56,"x_max":596,"o":"m 67 -14 q 56 8 56 -6 l 56 14 q 132 127 110 54 q 154 340 154 200 q 82 336 128 340 q 71 353 71 340 q 85 397 82 376 l 154 397 q 190 551 156 482 q 271 656 225 619 q 353 710 317 692 q 404 729 389 729 q 506 717 450 729 q 590 692 561 704 q 568 539 579 654 q 549 531 557 531 l 529 536 q 507 642 525 588 q 465 667 497 654 q 386 681 433 681 q 303 604 339 681 q 261 397 267 528 q 478 407 396 397 q 489 390 489 403 q 474 342 479 374 l 261 342 l 261 311 q 183 69 261 165 q 335 67 233 67 q 506 92 436 67 q 551 211 529 146 q 569 213 557 213 q 596 200 581 213 q 574 56 581 106 q 561 6 568 7 q 411 -3 528 -3 l 283 0 l 232 0 q 67 -14 122 0 z "},"¤":{"ha":776,"x_min":65,"x_max":711,"o":"m 574 500 q 626 350 626 439 q 579 210 626 261 l 711 96 q 667 18 690 71 q 661 17 665 17 l 654 18 q 529 167 625 71 q 389 121 471 132 q 260 157 315 121 l 140 26 q 67 71 113 47 q 65 76 65 72 l 67 83 q 210 201 121 113 q 160 349 160 263 q 200 489 160 436 l 88 594 q 133 668 108 624 q 139 671 135 671 l 146 668 q 250 533 171 619 q 396 583 301 567 q 524 544 464 583 l 628 671 q 704 628 658 646 q 706 622 706 626 l 704 615 q 574 500 657 586 m 393 189 q 532 340 532 189 q 497 466 532 417 q 393 515 461 515 q 251 363 251 515 q 289 238 251 288 q 393 189 326 189 z "},"¥":{"ha":801,"x_min":28,"x_max":774,"o":"m 29 707 l 183 713 q 240 663 194 713 q 341 531 285 613 q 428 376 397 449 q 503 483 453 413 q 613 663 596 615 q 522 667 590 667 q 518 687 518 679 q 522 711 518 694 q 665 707 522 711 q 768 715 721 707 q 774 693 774 710 l 772 679 q 715 651 743 672 q 634 565 688 629 q 533 433 581 501 q 693 443 581 433 q 704 426 704 439 q 689 376 700 419 l 494 378 q 461 317 467 332 q 456 271 456 301 q 671 279 576 271 q 682 263 682 276 q 667 213 678 257 q 456 215 554 215 l 456 196 q 465 46 456 119 q 571 39 499 39 q 572 15 572 28 q 571 -4 572 1 l 418 0 q 226 -11 313 0 q 221 11 221 -4 l 222 24 q 306 47 276 32 q 343 76 336 63 q 353 112 350 89 q 356 215 356 135 q 129 206 238 215 q 118 222 118 210 q 133 271 129 243 l 350 271 q 343 310 349 285 q 317 376 338 336 q 154 367 286 376 q 143 383 143 371 q 157 432 153 406 l 282 432 q 129 629 219 528 q 92 660 108 653 q 29 671 75 668 q 28 690 28 679 q 29 707 28 701 z "},"¦":{"ha":394,"x_min":157,"x_max":251,"o":"m 238 506 l 238 449 l 157 417 l 157 1167 q 232 1189 199 1176 q 251 1176 244 1189 q 238 506 238 1040 m 232 -450 l 232 -544 l 157 -576 l 157 211 q 226 233 186 218 q 246 221 239 233 q 232 -450 232 85 z "},"§":{"ha":882,"x_min":63,"x_max":783,"o":"m 571 965 q 431 913 488 965 q 374 774 374 860 q 404 673 374 724 q 480 581 435 622 q 578 488 525 540 q 677 383 632 435 q 753 257 722 332 q 783 99 783 182 q 652 -185 783 -69 q 340 -301 521 -301 q 94 -262 204 -301 q 63 -7 78 -99 q 103 7 88 7 q 126 6 118 7 q 151 -95 132 -24 q 176 -180 171 -167 q 193 -203 182 -193 q 235 -226 204 -214 q 306 -237 265 -237 q 427 -179 371 -237 q 483 -26 483 -121 q 340 226 483 86 q 221 345 281 285 q 119 483 161 406 q 78 639 78 560 q 216 911 78 800 q 532 1022 354 1022 q 761 993 649 1022 q 743 751 753 931 q 713 744 736 744 q 683 750 690 744 q 672 849 682 772 q 656 944 661 925 q 571 965 626 965 m 590 6 q 499 -207 590 -106 q 629 -102 576 -175 q 682 52 682 -29 q 659 195 682 133 q 600 303 636 257 q 520 391 564 349 q 433 473 476 433 q 353 553 389 513 q 271 749 271 642 q 338 917 271 832 q 185 672 185 828 q 226 528 185 601 q 328 393 268 456 q 447 269 388 331 q 549 139 507 208 q 590 6 590 69 z "},"¨":{"ha":874,"x_min":206,"x_max":668,"o":"m 276 821 q 206 913 226 856 q 251 953 222 932 q 300 983 279 975 q 368 890 353 944 q 276 821 329 840 m 576 821 q 506 913 526 856 q 551 953 522 932 q 600 983 579 975 q 668 890 653 944 q 576 821 629 840 z "},"©":{"ha":1207,"x_min":83,"x_max":1124,"o":"m 604 -29 q 496 -29 604 -29 q 235 124 388 -29 q 83 497 83 278 q 235 869 83 715 q 604 1022 388 1022 q 972 869 821 1022 q 1124 497 1124 715 q 972 124 1124 278 q 604 -29 821 -29 m 289 824 q 223 756 289 824 q 157 496 157 688 q 289 169 157 304 q 604 33 421 33 q 919 169 788 33 q 1050 496 1050 304 q 919 824 1050 688 q 604 960 788 960 q 289 824 421 960 m 588 761 q 478 692 524 761 q 432 525 432 624 q 481 346 432 426 q 628 265 531 265 q 806 313 690 265 q 815 289 815 304 l 699 206 q 683 199 689 201 q 666 193 676 196 q 646 188 656 190 q 600 182 626 182 q 394 271 465 182 q 324 493 324 360 q 352 635 324 572 q 419 730 381 697 q 506 783 458 763 q 622 817 575 817 q 815 783 707 817 q 794 628 807 750 q 772 624 778 624 q 757 626 767 624 q 738 726 757 631 q 588 761 674 761 z "},"ª":{"ha":467,"x_min":74,"x_max":417,"o":"m 354 913 l 351 728 q 388 674 351 674 l 413 676 q 417 646 417 668 q 318 624 339 638 q 274 679 279 636 q 157 624 215 642 q 102 653 131 624 q 74 726 74 682 q 107 789 74 769 q 272 838 160 815 l 272 910 q 233 990 272 990 q 203 982 221 990 q 168 894 168 965 q 139 885 168 885 q 101 892 110 885 q 90 906 92 899 q 89 926 89 913 q 129 985 89 954 q 185 1006 139 992 q 239 1021 232 1021 q 326 989 297 1021 q 354 913 354 957 m 199 678 q 272 718 232 678 l 272 801 q 176 768 213 793 q 160 736 160 758 q 172 696 160 714 q 199 678 183 678 z "},"«":{"ha":715,"x_min":46,"x_max":654,"o":"m 317 335 l 317 354 q 617 643 518 522 q 639 636 629 643 q 654 615 649 629 l 461 344 l 654 74 q 617 46 646 46 q 317 335 503 179 m 46 335 l 46 354 q 213 503 125 419 q 346 643 300 588 q 381 622 372 643 l 383 615 l 190 344 l 383 74 q 346 46 376 46 q 46 335 233 179 z "},"¬":{"ha":746,"x_min":56,"x_max":682,"o":"m 671 483 l 671 411 q 682 193 671 268 q 661 179 676 179 q 588 199 644 186 l 588 404 l 289 404 q 68 393 189 404 q 56 413 56 399 q 74 483 63 431 l 671 483 z "},"®":{"ha":765,"x_min":46,"x_max":728,"o":"m 388 350 q 316 350 388 350 q 145 449 244 350 q 46 694 46 549 q 144 939 46 839 q 387 1039 243 1039 q 629 939 531 1039 q 728 694 728 839 q 629 449 728 549 q 388 350 531 350 m 388 982 q 331 982 388 982 q 194 897 275 982 q 113 694 113 811 q 194 492 113 576 q 388 407 275 407 q 581 492 500 407 q 663 694 663 576 q 581 897 663 811 q 388 982 500 982 m 385 876 q 515 779 515 876 q 438 683 515 706 q 463 624 450 647 q 500 572 488 583 q 526 560 513 560 l 549 560 q 554 542 554 551 q 551 529 554 533 q 488 524 513 526 q 458 521 463 521 q 440 551 454 521 q 406 625 425 581 q 383 678 388 669 l 374 678 q 335 679 350 678 l 335 611 q 338 560 335 574 q 379 554 349 554 q 382 537 382 546 q 379 524 382 528 l 238 524 q 233 535 233 524 l 235 549 q 269 584 265 557 q 274 694 274 611 q 273 814 274 778 q 267 850 272 850 q 240 854 261 854 q 239 866 239 860 q 240 876 239 872 l 385 876 m 449 774 q 383 844 449 844 q 339 843 354 844 q 335 711 335 807 q 372 710 340 710 q 426 727 404 710 q 449 774 449 744 z "},"¯":{"ha":867,"x_min":206,"x_max":667,"o":"m 224 906 q 654 915 522 906 q 667 893 667 910 q 649 832 660 879 q 218 822 378 832 q 206 843 206 828 q 224 906 215 868 z "},"°":{"ha":632,"x_min":85,"x_max":546,"o":"m 333 1022 q 485 960 425 1022 q 546 803 546 899 q 481 651 546 707 q 306 582 417 596 q 148 642 211 582 q 85 799 85 703 q 153 951 85 894 q 333 1022 221 1008 m 190 818 q 190 785 190 818 q 228 701 190 753 q 325 649 265 649 q 414 685 385 649 q 443 785 443 721 q 408 903 443 850 q 310 956 372 956 q 219 919 249 956 q 190 818 190 883 z "},"±":{"ha":739,"x_min":56,"x_max":683,"o":"m 410 383 q 421 160 410 271 q 400 146 415 146 q 328 165 368 158 l 328 383 q 88 372 200 383 q 74 393 74 378 q 93 463 88 425 l 328 463 q 315 694 328 568 q 338 707 321 707 q 410 689 368 693 l 410 463 q 671 476 557 463 q 683 454 683 471 q 665 383 671 429 l 410 383 m 367 79 q 671 93 535 79 q 683 71 683 88 q 665 0 681 65 l 368 0 q 68 -11 204 0 q 56 10 56 -6 q 74 79 61 24 l 367 79 z "},"²":{"ha":432,"x_min":21,"x_max":394,"o":"m 294 421 l 190 422 l 28 422 q 21 446 21 433 l 163 607 q 272 806 272 733 q 251 867 272 843 q 193 890 231 890 q 100 876 156 890 l 88 799 q 70 794 82 794 q 54 799 58 794 q 43 892 43 882 q 51 904 43 901 l 207 949 q 326 917 279 949 q 372 817 372 886 q 353 749 372 782 q 279 651 333 715 l 143 489 l 224 489 q 340 507 336 489 l 360 563 q 394 557 382 563 q 383 433 386 514 q 294 421 358 421 z "},"³":{"ha":401,"x_min":10,"x_max":365,"o":"m 365 596 q 303 462 365 517 q 157 407 240 407 q 10 439 74 407 q 54 513 17 479 q 181 454 140 454 q 244 492 221 454 q 267 576 267 529 q 128 688 267 665 l 240 871 l 163 871 q 85 865 124 871 l 76 804 q 57 800 68 800 q 39 804 46 800 q 29 928 29 918 q 38 939 29 939 l 224 939 q 339 946 288 939 q 350 928 350 942 l 226 743 q 365 596 365 700 z "},"´":{"ha":818,"x_min":267,"x_max":538,"o":"m 538 968 l 299 760 q 279 766 288 760 q 267 783 271 772 q 460 1039 374 918 q 538 968 515 1017 z "},"µ":{"ha":844,"x_min":122,"x_max":839,"o":"m 828 71 q 839 44 839 60 l 839 39 q 669 -28 696 -28 q 616 6 642 -28 q 583 99 590 40 q 317 -28 465 24 q 207 35 244 -28 q 241 -186 211 -89 q 296 -310 271 -283 q 346 -335 319 -331 q 350 -368 350 -350 q 190 -390 206 -387 q 128 329 128 -212 l 122 685 l 233 707 l 256 690 q 239 306 239 590 q 371 71 239 71 q 456 87 413 71 q 521 117 500 103 q 579 157 542 131 l 579 389 l 578 685 l 683 707 l 704 690 q 693 388 693 606 l 693 233 q 743 57 693 57 q 828 71 782 57 z "},"¶":{"ha":1261,"x_min":111,"x_max":1146,"o":"m 490 1004 l 585 1000 l 624 1000 q 629 974 629 989 q 624 949 629 960 l 600 949 q 471 842 514 949 q 428 579 428 735 q 567 228 428 228 l 624 228 q 629 201 629 218 l 624 176 l 583 176 l 490 172 q 213 290 315 172 q 111 594 111 408 q 203 892 111 781 q 490 1004 294 1004 m 1143 1004 q 1146 980 1146 994 q 1143 954 1146 965 q 1063 946 1103 954 q 1043 657 1043 942 l 1043 106 q 863 -276 1043 -208 l 539 -399 q 513 -354 513 -385 q 515 -339 513 -346 q 604 -296 515 -339 q 697 -169 667 -265 q 724 113 724 -90 l 724 1000 l 926 1000 l 1143 1004 m 938 574 q 932 944 938 817 q 835 940 867 944 l 835 94 q 832 -39 835 3 q 754 -249 825 -147 l 790 -232 q 938 94 938 -164 l 938 574 z "},"·":{"ha":346,"x_min":93,"x_max":276,"o":"m 172 296 q 93 400 119 339 q 200 479 143 456 q 276 374 257 425 q 230 331 261 354 q 172 296 199 307 z "},"¸":{"ha":706,"x_min":278,"x_max":524,"o":"m 322 -161 q 317 -148 315 -158 q 318 -124 318 -137 l 339 0 l 394 0 l 385 -94 q 492 -157 460 -125 q 524 -244 524 -189 q 500 -325 524 -299 q 435 -372 476 -351 l 282 -372 q 278 -354 278 -367 l 279 -337 q 457 -260 457 -335 q 425 -202 457 -225 q 322 -161 393 -179 z "},"¹":{"ha":315,"x_min":24,"x_max":288,"o":"m 196 951 q 232 932 224 946 q 215 694 215 871 l 215 465 q 283 461 233 461 q 288 442 288 451 q 283 422 288 432 l 43 422 q 40 456 40 438 q 122 489 118 469 q 129 690 129 517 l 129 849 l 39 826 q 24 865 24 838 q 196 951 114 903 z "},"º":{"ha":539,"x_min":68,"x_max":471,"o":"m 471 822 q 265 624 471 657 q 126 681 183 624 q 68 822 68 739 q 272 1022 68 992 q 413 964 356 1022 q 471 822 471 906 m 282 661 q 379 794 379 661 q 347 928 379 872 q 257 985 314 985 q 157 851 157 985 q 192 718 157 775 q 282 661 226 661 z "},"»":{"ha":715,"x_min":61,"x_max":668,"o":"m 399 354 l 399 335 q 99 46 211 179 q 64 67 72 46 l 61 74 l 254 344 l 61 615 q 99 643 68 643 q 232 503 144 588 q 399 354 319 419 m 668 354 l 668 335 q 368 46 482 179 q 347 53 356 46 q 332 74 338 60 l 524 344 l 332 615 q 368 643 339 643 q 668 354 474 517 z "},"¼":{"ha":867,"x_min":24,"x_max":833,"o":"m 688 1007 q 697 1011 690 1011 q 710 1007 704 1011 q 750 965 715 1000 l 471 474 q 332 218 443 425 q 200 -35 221 11 q 190 -39 197 -39 q 179 -35 183 -39 q 133 7 164 -17 l 421 511 q 688 1007 610 849 m 196 951 q 232 932 224 946 q 215 694 215 871 l 215 465 q 283 461 233 461 q 288 442 288 451 q 283 422 288 432 l 43 422 q 40 456 40 438 q 122 489 118 469 q 129 690 129 517 l 129 849 l 39 826 q 24 865 24 838 q 196 951 114 903 m 661 188 l 661 383 l 532 188 l 661 188 m 744 324 l 744 188 q 789 213 779 188 l 804 250 q 833 240 822 250 q 822 140 828 215 q 744 129 800 129 l 744 43 q 801 39 763 39 q 806 19 806 29 q 801 0 806 10 l 588 0 q 583 33 583 10 q 657 63 653 43 q 661 129 661 75 l 535 132 q 438 126 488 132 q 428 150 428 135 q 476 204 465 189 l 718 546 q 754 533 736 546 q 744 324 744 474 z "},"½":{"ha":956,"x_min":24,"x_max":918,"o":"m 688 1007 q 697 1011 690 1011 q 710 1007 704 1011 q 750 965 715 1000 l 471 474 q 332 218 443 425 q 200 -35 221 11 q 190 -39 197 -39 q 179 -35 183 -39 q 133 7 164 -17 l 421 511 q 688 1007 610 849 m 196 951 q 232 932 224 946 q 215 694 215 871 l 215 465 q 283 461 233 461 q 288 442 288 451 q 283 422 288 432 l 43 422 q 40 456 40 438 q 122 489 118 469 q 129 690 129 517 l 129 849 l 39 826 q 24 865 24 838 q 196 951 114 903 m 818 -1 l 715 0 l 551 0 q 544 24 544 11 l 688 185 q 796 383 796 307 q 775 444 796 421 q 717 468 754 468 q 624 454 679 468 l 611 376 q 594 372 606 372 q 578 376 583 372 q 567 469 567 460 q 576 482 567 479 l 732 526 q 849 495 803 526 q 896 394 896 464 q 876 324 896 358 q 804 229 856 290 l 667 67 l 749 67 q 865 85 860 67 l 883 140 q 918 135 906 140 q 907 11 914 108 q 818 -1 882 -1 z "},"¾":{"ha":901,"x_min":10,"x_max":868,"o":"m 722 1007 q 733 1011 726 1011 q 744 1007 739 1011 q 785 965 750 1000 l 506 474 q 369 224 483 435 q 235 -35 256 13 q 226 -39 233 -39 q 213 -32 218 -39 q 189 -10 207 -25 q 168 7 171 4 l 456 511 q 722 1007 617 794 m 365 596 q 303 462 365 517 q 157 407 240 407 q 10 439 74 407 q 54 513 17 479 q 181 454 140 454 q 244 492 221 454 q 267 576 267 529 q 128 688 267 665 l 240 871 l 163 871 q 85 865 124 871 l 76 804 q 57 800 68 800 q 39 804 46 800 q 29 928 29 918 q 38 939 29 939 l 224 939 q 339 946 288 939 q 350 928 350 942 l 226 743 q 365 596 365 700 m 696 188 l 696 383 l 567 188 l 696 188 m 868 240 q 857 140 857 190 q 779 129 835 129 l 779 43 q 838 39 799 39 q 840 19 840 29 q 838 0 840 10 l 622 0 q 618 33 618 10 q 693 63 688 43 q 696 129 696 79 l 571 132 q 472 126 522 132 q 463 150 463 136 q 511 204 500 189 l 754 546 q 789 533 772 546 q 779 324 779 474 l 779 188 q 824 213 814 188 l 839 250 q 868 240 858 250 z "},"¿":{"ha":578,"x_min":74,"x_max":483,"o":"m 400 707 q 479 604 451 664 q 372 524 431 550 q 296 629 317 576 q 342 673 311 649 q 400 707 374 697 m 450 -449 q 428 -443 447 -449 q 421 -393 428 -410 q 333 -352 392 -372 q 254 -322 274 -332 q 74 -39 74 -235 q 79 28 74 -7 q 170 168 119 122 q 313 235 221 214 q 344 407 321 258 q 368 413 354 413 q 399 410 382 413 q 418 214 407 283 q 422 182 422 189 q 399 168 421 178 q 230 120 306 153 q 144 40 154 88 q 138 -21 138 13 q 191 -148 138 -96 q 383 -233 244 -200 q 424 -244 411 -240 q 453 -254 438 -249 q 476 -265 469 -260 q 483 -278 483 -271 q 477 -340 483 -286 q 471 -444 471 -393 l 450 -449 z "},"À":{"ha":1038,"x_min":-10,"x_max":1044,"o":"m 622 1071 l 356 1243 q 422 1324 369 1290 q 615 1131 511 1229 l 650 1099 q 622 1071 646 1072 m 1040 -4 l 878 0 q 693 -11 772 0 q 685 13 685 0 l 688 24 q 763 52 742 36 q 785 88 785 68 q 765 165 785 107 l 683 374 q 504 378 608 378 l 306 374 l 271 285 q 201 40 201 113 q 299 39 233 39 q 301 17 301 29 q 299 -4 301 4 l 151 0 q -1 -11 64 0 q -10 13 -10 -1 l -7 24 q 97 85 64 43 q 194 274 129 126 l 538 1051 l 560 1051 l 879 235 q 923 133 888 208 q 968 43 958 57 q 1040 39 1007 39 q 1044 17 1044 29 q 1040 -4 1044 4 m 326 428 l 504 422 q 665 426 600 422 l 504 851 l 326 428 z "},"Á":{"ha":1038,"x_min":-10,"x_max":1044,"o":"m 743 1243 l 476 1071 q 458 1078 465 1071 q 449 1099 451 1085 q 676 1324 574 1217 q 743 1243 729 1290 m 1040 -4 l 878 0 q 693 -11 772 0 q 685 13 685 0 l 688 24 q 763 52 742 36 q 785 88 785 68 q 765 165 785 107 l 683 374 q 504 378 608 378 l 306 374 l 271 285 q 201 40 201 113 q 299 39 233 39 q 301 17 301 29 q 299 -4 301 4 l 151 0 q -1 -11 64 0 q -10 13 -10 -1 l -7 24 q 97 85 64 43 q 194 274 129 126 l 538 1051 l 560 1051 l 879 235 q 923 133 888 208 q 968 43 958 57 q 1040 39 1007 39 q 1044 17 1044 29 q 1040 -4 1044 4 m 326 428 l 504 422 q 665 426 600 422 l 504 851 l 326 428 z "},"Â":{"ha":1038,"x_min":-10,"x_max":1044,"o":"m 756 1057 l 549 1190 l 339 1057 q 321 1065 328 1058 q 311 1085 314 1072 q 539 1311 438 1204 l 556 1311 q 749 1117 656 1204 l 783 1085 q 756 1057 779 1060 m 1040 -4 l 878 0 q 693 -11 772 0 q 685 13 685 0 l 688 24 q 763 52 742 36 q 785 88 785 68 q 765 165 785 107 l 683 374 q 504 378 608 378 l 306 374 l 271 285 q 201 40 201 113 q 299 39 233 39 q 301 17 301 29 q 299 -4 301 4 l 151 0 q -1 -11 64 0 q -10 13 -10 -1 l -7 24 q 97 85 64 43 q 194 274 129 126 l 538 1051 l 560 1051 l 879 235 q 923 133 888 208 q 968 43 958 57 q 1040 39 1007 39 q 1044 17 1044 29 q 1040 -4 1044 4 m 326 428 l 504 422 q 665 426 600 422 l 504 851 l 326 428 z "},"Ã":{"ha":1038,"x_min":-10,"x_max":1044,"o":"m 1040 -4 l 878 0 q 693 -11 772 0 q 685 13 685 0 l 688 24 q 763 52 742 36 q 785 88 785 68 q 765 165 785 107 l 683 374 q 504 378 608 378 l 306 374 l 271 285 q 201 40 201 113 q 299 39 233 39 q 301 17 301 29 q 299 -4 301 4 l 151 0 q -1 -11 64 0 q -10 13 -10 -1 l -7 24 q 97 85 64 43 q 194 274 129 126 l 538 1051 l 560 1051 l 879 235 q 923 133 888 208 q 968 43 958 57 q 1040 39 1007 39 q 1044 17 1044 29 q 1040 -4 1044 4 m 326 428 l 504 422 q 665 426 600 422 l 504 851 l 326 428 m 661 1132 q 553 1153 622 1132 q 447 1174 485 1174 q 354 1135 410 1174 q 332 1163 340 1143 q 379 1202 354 1181 q 411 1229 404 1224 q 480 1261 450 1261 q 574 1240 510 1261 q 683 1218 638 1218 q 768 1260 708 1218 q 793 1228 786 1253 q 746 1190 781 1219 q 661 1132 682 1132 z "},"Ä":{"ha":1038,"x_min":-10,"x_max":1044,"o":"m 1040 -4 l 878 0 q 693 -11 772 0 q 685 13 685 0 l 688 24 q 763 52 742 36 q 785 88 785 68 q 765 165 785 107 l 683 374 q 504 378 608 378 l 306 374 l 271 285 q 201 40 201 113 q 299 39 233 39 q 301 17 301 29 q 299 -4 301 4 l 151 0 q -1 -11 64 0 q -10 13 -10 -1 l -7 24 q 97 85 64 43 q 194 274 129 126 l 538 1051 l 560 1051 l 879 235 q 923 133 888 208 q 968 43 958 57 q 1040 39 1007 39 q 1044 17 1044 29 q 1040 -4 1044 4 m 326 428 l 504 422 q 665 426 600 422 l 504 851 l 326 428 m 385 1115 q 315 1207 338 1149 q 360 1248 332 1226 q 410 1278 389 1269 q 478 1185 461 1239 q 385 1115 439 1135 m 685 1115 q 615 1207 638 1149 q 660 1248 632 1226 q 710 1278 689 1269 q 778 1185 761 1239 q 685 1115 739 1135 z "},"Å":{"ha":1038,"x_min":-10,"x_max":1044,"o":"m 1040 -4 l 878 0 q 693 -11 772 0 q 685 13 685 0 l 688 24 q 763 52 742 36 q 785 88 785 68 q 765 165 785 107 l 683 374 q 504 378 608 378 l 306 374 l 271 285 q 201 40 201 113 q 299 39 233 39 q 301 17 301 29 q 299 -4 301 4 l 151 0 q -1 -11 64 0 q -10 13 -10 -1 l -7 24 q 97 85 64 43 q 194 274 129 126 l 538 1051 l 560 1051 l 879 235 q 923 133 888 208 q 968 43 958 57 q 1040 39 1007 39 q 1044 17 1044 29 q 1040 -4 1044 4 m 326 428 l 504 422 q 665 426 600 422 l 504 851 l 326 428 m 688 1221 q 539 1082 688 1103 q 438 1122 479 1082 q 396 1221 396 1163 q 546 1360 396 1336 q 647 1319 606 1360 q 688 1221 688 1278 m 551 1124 q 613 1201 613 1124 q 591 1282 613 1247 q 533 1317 569 1317 q 471 1239 471 1317 q 493 1158 471 1193 q 551 1124 515 1124 z "},"Æ":{"ha":1449,"x_min":-10,"x_max":1356,"o":"m 310 -4 l 156 0 q -1 -11 68 0 q -10 11 -10 4 l -7 24 q 105 85 65 43 q 232 274 144 126 l 643 960 q 563 965 621 965 q 560 983 560 972 q 563 1004 560 993 l 774 1000 l 985 1000 l 1313 1010 q 1338 994 1338 1010 q 1333 961 1338 993 q 1313 768 1318 861 q 1283 760 1296 760 q 1260 765 1269 760 q 1233 922 1238 904 q 1006 951 1107 951 q 867 946 906 951 q 857 856 864 935 q 850 550 850 717 q 969 544 872 544 q 1112 550 1065 544 q 1181 572 1158 556 q 1213 640 1203 589 q 1256 632 1244 640 q 1243 515 1243 561 l 1244 394 q 1221 388 1236 388 l 1200 390 l 1185 482 q 1009 494 1110 494 q 850 488 908 494 l 850 239 q 860 56 850 107 q 957 50 900 50 q 1240 88 1100 50 q 1281 173 1263 119 q 1304 238 1300 226 q 1325 239 1311 239 q 1356 226 1339 239 q 1326 22 1336 126 q 1307 4 1322 6 q 1144 -6 1249 -6 l 839 0 q 601 -11 664 0 q 594 13 594 -3 l 596 24 q 672 55 644 33 q 706 96 699 76 q 729 374 726 156 q 568 376 685 376 l 368 374 l 321 285 q 213 40 222 103 q 310 39 244 39 q 313 21 313 29 q 310 -4 313 13 m 399 428 q 619 424 549 424 q 732 426 689 424 l 732 485 q 728 837 732 729 q 704 944 725 944 q 694 939 699 944 l 399 428 z "},"Ç":{"ha":1056,"x_min":96,"x_max":976,"o":"m 511 -161 q 506 -148 504 -158 q 507 -124 507 -137 l 524 -21 q 210 150 324 7 q 96 489 96 293 q 247 873 96 724 q 629 1022 397 1022 q 957 976 814 1022 q 965 966 965 972 q 960 922 965 960 q 940 733 943 808 q 910 729 919 729 q 888 735 901 729 q 861 878 872 838 q 613 972 772 972 q 349 861 453 972 q 246 548 246 750 q 353 187 246 346 q 629 28 460 28 q 860 94 764 28 q 901 183 885 135 q 924 243 918 232 q 976 229 957 243 q 946 28 956 131 q 928 10 944 13 q 611 -28 797 -28 q 579 -26 590 -28 l 574 -94 q 681 -157 649 -125 q 713 -244 713 -189 q 689 -325 713 -299 q 624 -372 665 -351 l 471 -372 q 467 -354 467 -367 l 468 -337 q 646 -260 646 -335 q 614 -202 646 -225 q 511 -161 582 -179 z "},"È":{"ha":956,"x_min":82,"x_max":843,"o":"m 585 1071 l 318 1243 q 385 1324 332 1290 q 578 1131 476 1229 l 613 1099 q 585 1071 610 1072 m 632 -6 l 394 0 l 321 0 q 89 -11 160 0 q 82 13 82 -3 l 83 24 q 178 75 156 40 q 201 144 196 103 q 218 489 218 271 q 193 954 218 946 q 101 961 167 961 q 99 983 99 971 q 101 1004 99 996 l 313 1000 l 472 1000 l 800 1010 q 824 994 824 1010 q 819 961 824 993 q 800 768 806 875 q 770 760 783 760 q 746 765 757 760 q 721 922 729 892 q 494 951 594 951 q 354 946 393 951 q 338 550 338 857 q 456 544 360 544 q 599 550 551 544 q 667 572 646 556 q 700 640 689 589 q 743 632 729 640 q 729 515 729 553 l 732 394 q 707 388 722 388 l 688 390 l 672 482 q 497 494 597 494 q 338 488 397 494 l 338 239 q 346 56 338 108 q 444 50 389 50 q 728 88 588 50 q 768 174 749 121 q 790 238 788 228 q 813 239 799 239 q 843 226 826 239 q 813 22 822 128 q 794 4 811 6 q 632 -6 733 -6 z "},"É":{"ha":956,"x_min":82,"x_max":843,"o":"m 649 1243 l 382 1071 q 364 1078 371 1071 q 354 1099 357 1085 q 582 1324 479 1217 q 649 1243 635 1290 m 632 -6 l 394 0 l 321 0 q 89 -11 160 0 q 82 13 82 -3 l 83 24 q 178 75 156 40 q 201 144 196 103 q 218 489 218 271 q 193 954 218 946 q 101 961 167 961 q 99 983 99 971 q 101 1004 99 996 l 313 1000 l 472 1000 l 800 1010 q 824 994 824 1010 q 819 961 824 993 q 800 768 806 875 q 770 760 783 760 q 746 765 757 760 q 721 922 729 892 q 494 951 594 951 q 354 946 393 951 q 338 550 338 857 q 456 544 360 544 q 599 550 551 544 q 667 572 646 556 q 700 640 689 589 q 743 632 729 640 q 729 515 729 553 l 732 394 q 707 388 722 388 l 688 390 l 672 482 q 497 494 597 494 q 338 488 397 494 l 338 239 q 346 56 338 108 q 444 50 389 50 q 728 88 588 50 q 768 174 749 121 q 790 238 788 228 q 813 239 799 239 q 843 226 826 239 q 813 22 822 128 q 794 4 811 6 q 632 -6 733 -6 z "},"Ê":{"ha":956,"x_min":82,"x_max":843,"o":"m 704 1057 l 496 1190 l 288 1057 q 269 1065 276 1058 q 260 1085 263 1072 q 488 1311 385 1204 l 504 1311 q 697 1117 604 1204 l 732 1085 q 704 1057 728 1060 m 632 -6 l 394 0 l 321 0 q 89 -11 160 0 q 82 13 82 -3 l 83 24 q 178 75 156 40 q 201 144 196 103 q 218 489 218 271 q 193 954 218 946 q 101 961 167 961 q 99 983 99 971 q 101 1004 99 996 l 313 1000 l 472 1000 l 800 1010 q 824 994 824 1010 q 819 961 824 993 q 800 768 806 875 q 770 760 783 760 q 746 765 757 760 q 721 922 729 892 q 494 951 594 951 q 354 946 393 951 q 338 550 338 857 q 456 544 360 544 q 599 550 551 544 q 667 572 646 556 q 700 640 689 589 q 743 632 729 640 q 729 515 729 553 l 732 394 q 707 388 722 388 l 688 390 l 672 482 q 497 494 597 494 q 338 488 397 494 l 338 239 q 346 56 338 108 q 444 50 389 50 q 728 88 588 50 q 768 174 749 121 q 790 238 788 228 q 813 239 799 239 q 843 226 826 239 q 813 22 822 128 q 794 4 811 6 q 632 -6 733 -6 z "},"Ë":{"ha":956,"x_min":82,"x_max":843,"o":"m 632 -6 l 394 0 l 321 0 q 89 -11 160 0 q 82 13 82 -3 l 83 24 q 178 75 156 40 q 201 144 196 103 q 218 489 218 271 q 193 954 218 946 q 101 961 167 961 q 99 983 99 971 q 101 1004 99 996 l 313 1000 l 472 1000 l 800 1010 q 824 994 824 1010 q 819 961 824 993 q 800 768 806 875 q 770 760 783 760 q 746 765 757 760 q 721 922 729 892 q 494 951 594 951 q 354 946 393 951 q 338 550 338 857 q 456 544 360 544 q 599 550 551 544 q 667 572 646 556 q 700 640 689 589 q 743 632 729 640 q 729 515 729 553 l 732 394 q 707 388 722 388 l 688 390 l 672 482 q 497 494 597 494 q 338 488 397 494 l 338 239 q 346 56 338 108 q 444 50 389 50 q 728 88 588 50 q 768 174 749 121 q 790 238 788 228 q 813 239 799 239 q 843 226 826 239 q 813 22 822 128 q 794 4 811 6 q 632 -6 733 -6 m 328 1115 q 257 1207 282 1149 q 302 1248 274 1226 q 351 1278 331 1269 q 421 1185 404 1239 q 328 1115 378 1133 m 628 1115 q 557 1207 582 1149 q 602 1248 574 1226 q 651 1278 631 1269 q 721 1185 704 1239 q 628 1115 678 1133 z "},"Ì":{"ha":494,"x_min":32,"x_max":457,"o":"m 360 1071 l 93 1243 q 160 1324 104 1292 q 353 1131 249 1229 l 388 1099 q 360 1071 383 1072 m 426 1004 q 429 983 429 996 q 426 961 429 971 q 333 957 365 961 q 310 644 310 954 l 310 418 q 316 165 310 286 q 332 43 322 44 q 454 39 368 39 l 457 17 q 454 -4 457 4 l 278 0 q 39 -11 132 0 q 32 7 32 -4 q 33 24 32 18 q 144 69 124 43 q 161 99 157 86 q 168 138 165 111 q 185 489 185 246 l 185 644 q 161 957 185 954 q 68 961 129 961 l 65 983 q 68 1004 65 996 l 249 1000 l 426 1004 z "},"Í":{"ha":494,"x_min":32,"x_max":465,"o":"m 465 1243 l 199 1071 q 181 1078 188 1071 q 171 1099 174 1085 q 399 1324 296 1217 q 465 1243 451 1290 m 68 1004 l 249 1000 q 426 1004 249 1000 q 429 983 429 996 l 426 961 q 333 957 365 961 q 310 644 310 954 l 310 418 q 316 165 310 286 q 332 43 322 44 q 454 39 368 39 q 457 17 457 29 q 454 -4 457 4 l 278 0 q 39 -11 132 0 q 32 13 32 -4 l 33 24 q 144 69 124 43 q 161 99 157 86 q 168 138 165 111 q 185 489 185 246 l 185 644 q 161 957 185 954 q 68 961 129 961 q 65 983 65 971 q 68 1004 65 996 z "},"Î":{"ha":494,"x_min":32,"x_max":510,"o":"m 482 1057 l 274 1190 l 65 1057 q 47 1065 54 1058 q 38 1085 40 1072 q 265 1311 163 1204 l 282 1311 q 475 1117 382 1204 l 510 1085 q 482 1057 506 1060 m 426 1004 q 429 983 429 996 q 426 961 429 971 q 333 957 365 961 q 310 644 310 954 l 310 418 q 316 165 310 286 q 332 43 322 44 q 454 39 368 39 l 457 17 q 454 -4 457 4 l 278 0 q 39 -11 132 0 q 32 7 32 -4 q 33 24 32 18 q 144 69 124 43 q 161 99 157 86 q 168 138 165 111 q 185 489 185 246 l 185 644 q 161 957 185 954 q 68 961 129 961 l 65 983 q 68 1004 65 996 l 249 1000 l 426 1004 z "},"Ï":{"ha":494,"x_min":15,"x_max":478,"o":"m 426 1004 q 429 983 429 996 q 426 961 429 971 q 333 957 365 961 q 310 644 310 954 l 310 418 q 316 165 310 286 q 332 43 322 44 q 454 39 368 39 l 457 17 q 454 -4 457 4 l 278 0 q 39 -11 132 0 q 32 7 32 -4 q 33 24 32 18 q 144 69 124 43 q 161 99 157 86 q 168 138 165 111 q 185 489 185 246 l 185 644 q 161 957 185 954 q 68 961 129 961 l 65 983 q 68 1004 65 996 l 249 1000 l 426 1004 m 85 1115 q 15 1207 38 1149 q 60 1248 32 1226 q 110 1278 89 1269 q 178 1185 161 1239 q 85 1115 139 1135 m 385 1115 q 315 1207 338 1149 q 360 1248 332 1226 q 410 1278 389 1269 q 478 1185 461 1239 q 385 1115 439 1135 z "},"Ð":{"ha":1178,"x_min":61,"x_max":1089,"o":"m 556 -6 l 350 0 q 68 -11 161 0 q 61 11 61 -3 l 63 24 q 183 78 160 43 q 199 108 196 97 q 218 463 213 167 q 121 457 193 463 q 107 478 107 463 q 126 533 122 503 l 218 533 l 218 650 q 194 954 218 946 q 99 961 154 961 q 94 983 94 971 q 99 1004 94 996 l 254 1000 l 388 1000 l 556 1006 q 952 866 815 1006 q 1089 506 1089 726 q 939 140 1089 286 q 556 -6 789 -6 m 461 951 q 357 946 394 951 q 340 676 340 885 l 340 533 l 379 533 q 640 544 528 533 q 654 522 654 539 q 635 467 639 497 l 340 467 l 340 239 q 346 74 340 115 q 540 50 439 50 q 841 162 743 50 q 939 482 939 274 q 831 806 939 671 q 680 912 775 872 q 461 951 585 951 z "},"Ñ":{"ha":1194,"x_min":40,"x_max":1140,"o":"m 367 -4 l 210 0 q 49 -11 114 0 q 40 13 40 0 l 43 24 q 139 75 115 40 q 163 144 157 103 q 194 907 188 325 q 133 956 160 944 q 49 971 107 967 q 44 992 44 979 q 49 1013 44 1006 l 276 1018 q 557 732 318 1018 q 956 218 693 571 q 947 605 951 326 q 929 957 942 883 q 817 961 899 961 q 811 984 811 972 q 815 1004 811 996 l 972 1000 q 1133 1011 1068 1000 q 1140 988 1140 1003 l 1139 976 q 1049 933 1071 961 q 1022 856 1026 906 q 1004 -21 1004 567 l 971 -35 l 940 4 q 421 668 675 354 q 239 865 321 790 q 240 419 239 678 q 257 43 240 161 q 367 39 289 39 q 371 17 371 28 q 367 -4 371 6 m 707 1132 q 600 1153 668 1132 q 493 1174 532 1174 q 400 1135 454 1174 q 378 1163 386 1144 q 458 1228 418 1194 q 527 1261 499 1261 q 619 1240 556 1261 q 729 1218 683 1218 q 815 1260 756 1218 q 839 1228 832 1254 q 774 1175 822 1218 q 707 1132 726 1132 z "},"Ò":{"ha":1171,"x_min":89,"x_max":1082,"o":"m 710 1071 l 443 1243 q 510 1324 454 1292 q 703 1131 599 1229 l 738 1099 q 710 1071 733 1072 m 1082 496 q 1055 317 1082 399 q 987 184 1028 236 q 892 91 946 132 q 788 28 838 50 q 689 -7 739 7 q 578 -28 615 -28 q 232 123 375 -28 q 89 496 89 274 q 116 674 89 593 q 184 808 143 756 q 279 902 225 861 q 383 965 333 943 q 482 1001 433 988 q 594 1022 554 1022 q 939 869 796 1022 q 1082 496 1082 715 m 621 44 q 859 151 778 44 q 940 424 940 257 q 894 672 940 553 q 757 872 847 792 q 554 951 667 951 q 313 842 397 951 q 229 572 229 733 q 277 323 229 443 q 417 124 325 203 q 621 44 508 44 z "},"Ó":{"ha":1171,"x_min":89,"x_max":1082,"o":"m 757 1243 l 490 1071 q 472 1078 479 1071 q 463 1099 465 1085 q 690 1324 589 1217 q 757 1243 746 1292 m 1082 496 q 1055 317 1082 399 q 987 184 1028 236 q 892 91 946 132 q 788 28 838 50 q 689 -7 739 7 q 578 -28 615 -28 q 232 123 375 -28 q 89 496 89 274 q 116 674 89 593 q 184 808 143 756 q 279 902 225 861 q 383 965 333 943 q 482 1001 433 988 q 594 1022 554 1022 q 939 869 796 1022 q 1082 496 1082 715 m 621 44 q 859 151 778 44 q 940 424 940 257 q 894 672 940 553 q 757 872 847 792 q 554 951 667 951 q 313 842 397 951 q 229 572 229 733 q 277 323 229 443 q 417 124 325 203 q 621 44 508 44 z "},"Ô":{"ha":1171,"x_min":89,"x_max":1082,"o":"m 793 1057 l 585 1190 l 376 1057 q 358 1065 365 1058 q 349 1085 351 1072 q 576 1311 474 1204 l 593 1311 q 786 1117 693 1204 l 821 1085 q 793 1057 817 1060 m 1082 496 q 1055 317 1082 399 q 987 184 1028 236 q 892 91 946 132 q 788 28 838 50 q 689 -7 739 7 q 578 -28 615 -28 q 232 123 375 -28 q 89 496 89 274 q 116 674 89 593 q 184 808 143 756 q 279 902 225 861 q 383 965 333 943 q 482 1001 433 988 q 594 1022 554 1022 q 939 869 796 1022 q 1082 496 1082 715 m 621 44 q 859 151 778 44 q 940 424 940 257 q 894 672 940 553 q 757 872 847 792 q 554 951 667 951 q 313 842 397 951 q 229 572 229 733 q 277 323 229 443 q 417 124 325 203 q 621 44 508 44 z "},"Õ":{"ha":1171,"x_min":89,"x_max":1082,"o":"m 1082 496 q 1055 317 1082 399 q 987 184 1028 236 q 892 91 946 132 q 788 28 838 50 q 689 -7 739 7 q 578 -28 615 -28 q 232 123 375 -28 q 89 496 89 274 q 116 674 89 593 q 184 808 143 756 q 279 902 225 861 q 383 965 333 943 q 482 1001 433 988 q 594 1022 554 1022 q 939 869 796 1022 q 1082 496 1082 715 m 621 44 q 859 151 778 44 q 940 424 940 257 q 894 672 940 553 q 757 872 847 792 q 554 951 667 951 q 313 842 397 951 q 229 572 229 733 q 277 323 229 443 q 417 124 325 203 q 621 44 508 44 m 689 1129 q 581 1151 650 1129 q 478 1172 513 1172 q 382 1133 444 1172 q 360 1161 367 1142 q 407 1201 382 1179 q 439 1228 432 1222 q 508 1260 478 1260 q 601 1238 538 1260 q 692 1217 665 1217 q 728 1219 719 1217 q 747 1226 736 1221 q 762 1235 757 1232 q 780 1247 767 1238 q 796 1257 793 1256 q 821 1226 813 1253 q 774 1189 793 1206 q 689 1129 708 1129 z "},"Ö":{"ha":1171,"x_min":89,"x_max":1082,"o":"m 1082 496 q 1055 317 1082 399 q 987 184 1028 236 q 892 91 946 132 q 788 28 838 50 q 689 -7 739 7 q 578 -28 615 -28 q 232 123 375 -28 q 89 496 89 274 q 116 674 89 593 q 184 808 143 756 q 279 902 225 861 q 383 965 333 943 q 482 1001 433 988 q 594 1022 554 1022 q 939 869 796 1022 q 1082 496 1082 715 m 621 44 q 859 151 778 44 q 940 424 940 257 q 894 672 940 553 q 757 872 847 792 q 554 951 667 951 q 313 842 397 951 q 229 572 229 733 q 277 323 229 443 q 417 124 325 203 q 621 44 508 44 m 424 1115 q 354 1207 376 1149 q 399 1248 371 1226 q 449 1278 428 1269 q 517 1185 500 1239 q 424 1115 478 1135 m 724 1115 q 654 1207 676 1149 q 699 1248 671 1226 q 749 1278 728 1269 q 817 1185 800 1239 q 724 1115 778 1135 z "},"×":{"ha":638,"x_min":56,"x_max":582,"o":"m 572 143 q 567 121 572 128 q 511 82 550 111 l 318 283 q 111 94 203 189 q 90 104 99 94 q 56 161 86 117 l 265 339 q 67 524 167 440 q 72 544 67 538 q 128 583 89 554 l 318 385 q 526 582 432 483 q 546 572 539 582 q 582 515 549 564 l 372 332 q 572 143 471 231 z "},"Ø":{"ha":1171,"x_min":89,"x_max":1082,"o":"m 883 921 q 1029 735 976 846 q 1082 512 1082 625 q 1055 317 1082 399 q 987 184 1028 236 q 892 91 946 132 q 788 28 838 50 q 689 -7 739 7 q 578 -28 615 -28 q 350 29 457 -28 q 278 -115 322 -17 q 267 -118 274 -118 q 254 -112 261 -118 q 210 -60 226 -76 l 288 72 q 142 253 194 143 q 89 478 89 364 q 116 674 89 593 q 184 808 143 756 q 279 902 225 861 q 383 965 333 943 q 482 1001 433 988 q 594 1022 554 1022 q 818 963 710 1022 q 893 1110 868 1050 q 905 1111 899 1111 q 917 1107 911 1111 q 941 1076 924 1096 q 963 1050 958 1056 l 883 921 m 554 951 q 313 842 397 951 q 229 572 229 733 q 356 185 229 351 l 765 865 q 554 951 668 951 m 621 44 q 859 151 778 44 q 940 424 940 257 q 908 629 940 528 q 817 807 875 731 l 407 129 q 621 44 503 44 z "},"Ù":{"ha":1151,"x_min":65,"x_max":1118,"o":"m 761 1071 l 494 1243 q 561 1324 508 1290 q 754 1131 650 1229 l 789 1099 q 761 1071 785 1072 m 68 1004 l 201 1000 q 424 1011 349 1000 q 432 988 432 1000 l 429 976 q 336 933 356 960 q 315 872 321 914 q 299 411 299 710 q 371 132 299 232 q 596 32 443 32 q 848 130 778 32 q 918 429 918 228 l 918 601 q 904 957 918 854 q 785 961 872 961 q 782 985 782 972 q 785 1004 782 999 l 949 1000 q 1111 1011 1054 1000 q 1118 988 1118 1003 l 1117 976 q 1000 832 1010 953 q 985 394 985 653 q 884 81 985 190 q 585 -28 783 -28 q 401 -1 479 -28 q 278 65 322 25 q 208 164 235 106 q 174 274 182 222 q 167 388 167 326 l 167 600 q 154 957 167 713 q 68 961 128 961 q 65 983 65 971 q 68 1004 65 996 z "},"Ú":{"ha":1151,"x_min":65,"x_max":1118,"o":"m 788 1243 l 521 1071 q 503 1078 510 1071 q 493 1099 496 1085 q 721 1324 618 1217 q 788 1243 774 1290 m 68 1004 l 201 1000 q 424 1011 349 1000 q 432 988 432 1000 l 429 976 q 336 933 356 960 q 315 872 321 914 q 299 411 299 710 q 371 132 299 232 q 596 32 443 32 q 848 130 778 32 q 918 429 918 228 l 918 601 q 904 957 918 854 q 785 961 872 961 q 782 985 782 972 q 785 1004 782 999 l 949 1000 q 1111 1011 1054 1000 q 1118 988 1118 1003 l 1117 976 q 1000 832 1010 953 q 985 394 985 653 q 884 81 985 190 q 585 -28 783 -28 q 401 -1 479 -28 q 278 65 322 25 q 208 164 235 106 q 174 274 182 222 q 167 388 167 326 l 167 600 q 154 957 167 713 q 68 961 128 961 q 65 983 65 971 q 68 1004 65 996 z "},"Û":{"ha":1151,"x_min":65,"x_max":1118,"o":"m 840 1057 l 633 1190 l 424 1057 q 406 1065 413 1058 q 396 1085 399 1072 q 624 1311 522 1204 l 640 1311 q 833 1117 751 1197 l 868 1085 q 840 1057 865 1060 m 68 1004 l 201 1000 q 424 1011 349 1000 q 432 988 432 1000 l 429 976 q 336 933 356 960 q 315 872 321 914 q 299 411 299 710 q 371 132 299 232 q 596 32 443 32 q 848 130 778 32 q 918 429 918 228 l 918 601 q 904 957 918 854 q 785 961 872 961 q 782 985 782 972 q 785 1004 782 999 l 949 1000 q 1111 1011 1054 1000 q 1118 988 1118 1003 l 1117 976 q 1000 832 1010 953 q 985 394 985 653 q 884 81 985 190 q 585 -28 783 -28 q 401 -1 479 -28 q 278 65 322 25 q 208 164 235 106 q 174 274 182 222 q 167 388 167 326 l 167 600 q 154 957 167 713 q 68 961 128 961 q 65 983 65 971 q 68 1004 65 996 z "},"Ü":{"ha":1151,"x_min":65,"x_max":1118,"o":"m 68 1004 l 201 1000 q 424 1011 349 1000 q 432 988 432 1000 l 429 976 q 336 933 356 960 q 315 872 321 914 q 299 411 299 710 q 371 132 299 232 q 596 32 443 32 q 848 130 778 32 q 918 429 918 228 l 918 601 q 904 957 918 854 q 785 961 872 961 q 782 985 782 972 q 785 1004 782 999 l 949 1000 q 1111 1011 1054 1000 q 1118 988 1118 1003 l 1117 976 q 1000 832 1010 953 q 985 394 985 653 q 884 81 985 190 q 585 -28 783 -28 q 401 -1 479 -28 q 278 65 322 25 q 208 164 235 106 q 174 274 182 222 q 167 388 167 326 l 167 600 q 154 957 167 713 q 68 961 128 961 q 65 983 65 971 q 68 1004 65 996 m 451 1115 q 382 1207 404 1149 q 427 1248 399 1226 q 476 1278 456 1269 q 544 1185 528 1239 q 451 1115 506 1135 m 751 1115 q 682 1207 704 1149 q 727 1248 699 1226 q 776 1278 756 1269 q 844 1185 828 1239 q 751 1115 806 1135 z "},"Ý":{"ha":1004,"x_min":0,"x_max":1004,"o":"m 674 1243 l 407 1071 q 389 1078 396 1071 q 379 1099 382 1085 q 607 1324 506 1217 q 674 1243 663 1292 m 4 1013 l 229 1018 q 301 942 243 1018 q 431 735 358 865 q 543 489 504 606 q 606 597 564 525 q 669 706 647 668 q 718 797 690 744 q 783 956 769 892 q 671 961 754 961 q 667 983 667 971 q 671 1004 667 996 q 847 1000 763 1000 q 996 1011 932 1000 q 1004 988 1004 997 l 1001 976 q 915 929 964 965 q 729 694 853 885 q 588 435 606 504 q 576 274 576 406 q 590 49 576 143 q 750 39 647 39 q 754 17 754 29 l 750 -4 l 529 0 q 263 -11 368 0 q 256 13 256 -3 l 257 24 q 419 86 390 44 q 449 242 449 128 q 430 432 449 356 q 317 667 411 508 q 146 910 224 826 q 88 956 115 944 q 4 971 61 968 q 0 994 0 979 q 4 1013 0 1008 z "},"Þ":{"ha":872,"x_min":78,"x_max":817,"o":"m 96 1004 l 276 1000 l 454 1004 q 457 983 457 996 l 454 961 q 361 957 393 961 q 339 817 347 956 l 482 817 q 728 735 640 817 q 817 506 817 653 q 722 285 817 360 q 476 210 626 210 q 389 211 422 210 q 382 235 382 219 l 389 263 q 471 261 413 261 q 629 324 564 261 q 694 478 694 386 q 632 688 694 608 q 449 767 569 767 q 338 763 376 767 l 338 418 q 344 165 338 286 q 360 43 350 44 q 518 39 407 39 q 522 17 522 29 q 518 -4 522 4 l 306 0 q 85 -11 172 0 q 78 13 78 -4 l 79 24 q 166 67 142 42 q 196 138 190 93 q 213 489 213 246 l 213 644 q 189 957 213 954 q 96 961 157 961 q 93 983 93 971 q 96 1004 93 996 z "},"ß":{"ha":929,"x_min":18,"x_max":863,"o":"m 517 1189 q 695 1124 614 1189 q 776 978 776 1060 q 749 844 776 897 q 681 758 721 790 q 603 700 642 726 q 507 549 507 635 q 533 483 507 514 q 596 433 558 451 l 704 382 q 863 178 863 306 q 788 28 863 83 q 610 -28 713 -28 q 497 -17 556 -28 q 413 4 438 -7 q 388 178 408 67 q 413 188 403 188 q 428 185 424 188 q 476 78 456 101 q 531 44 492 63 q 623 26 569 26 q 715 56 676 26 q 754 143 754 85 q 739 201 754 182 q 713 231 724 221 q 690 250 703 242 q 667 263 676 258 q 649 273 658 268 q 639 278 640 278 l 535 328 q 400 513 400 392 q 421 600 400 560 q 472 665 442 640 q 539 719 503 690 q 606 772 575 747 q 657 833 636 796 q 678 915 678 871 q 604 1061 678 993 q 451 1129 531 1129 q 354 1050 403 1129 q 279 685 279 929 l 279 415 q 296 0 279 149 q 40 -11 139 0 q 33 13 33 -3 l 35 24 q 143 94 125 42 q 165 576 165 157 l 165 622 l 28 621 q 18 638 18 626 q 33 685 25 651 l 167 685 q 176 810 168 707 q 219 986 183 914 q 297 1095 254 1058 q 392 1156 340 1132 q 517 1189 467 1189 z "},"à":{"ha":685,"x_min":65,"x_max":665,"o":"m 549 506 l 544 167 q 610 65 544 65 l 660 67 q 665 44 665 60 l 663 29 q 510 -28 556 10 q 458 10 479 -19 q 433 74 436 40 q 213 -28 322 6 q 115 26 165 -28 q 65 160 65 79 q 83 233 65 200 q 126 278 101 265 q 432 368 229 329 l 432 500 q 408 614 432 576 q 349 651 383 651 q 276 640 315 651 q 222 594 238 628 q 206 500 206 561 q 187 488 206 494 q 140 482 168 482 q 101 495 111 482 q 90 535 90 508 q 163 643 90 585 q 260 681 179 654 q 354 707 342 707 q 501 649 454 707 q 549 506 549 590 m 189 167 q 215 94 189 133 q 276 56 242 56 q 354 79 310 56 q 428 129 399 103 q 432 318 432 213 q 226 251 315 303 q 189 167 189 233 m 413 760 l 174 968 q 251 1039 196 1017 q 415 819 343 913 l 444 783 q 413 760 439 760 z "},"á":{"ha":685,"x_min":65,"x_max":665,"o":"m 549 506 l 544 167 q 610 65 544 65 l 660 67 q 665 44 665 60 l 663 29 q 510 -28 556 10 q 458 10 479 -19 q 433 74 436 40 q 213 -28 322 6 q 115 26 165 -28 q 65 160 65 79 q 83 233 65 200 q 126 278 101 265 q 432 368 229 329 l 432 500 q 408 614 432 576 q 349 651 383 651 q 276 640 315 651 q 222 594 238 628 q 206 500 206 561 q 187 488 206 494 q 140 482 168 482 q 101 495 111 482 q 90 535 90 508 q 163 643 90 585 q 260 681 179 654 q 354 707 342 707 q 501 649 454 707 q 549 506 549 590 m 189 167 q 215 94 189 133 q 276 56 242 56 q 354 79 310 56 q 428 129 399 103 q 432 318 432 232 q 226 251 315 303 q 189 167 189 233 m 554 968 l 315 760 q 296 766 304 760 q 283 783 288 772 q 476 1039 390 918 q 554 968 532 1017 z "},"â":{"ha":685,"x_min":65,"x_max":665,"o":"m 549 506 l 544 167 q 610 65 544 65 l 660 67 q 665 44 665 60 l 663 29 q 510 -28 556 10 q 458 10 479 -19 q 433 74 436 40 q 213 -28 322 6 q 115 26 165 -28 q 65 160 65 79 q 83 233 65 200 q 126 278 101 265 q 432 368 229 329 l 432 500 q 408 614 432 576 q 349 651 383 651 q 276 640 315 651 q 222 594 238 628 q 206 500 206 561 q 187 488 206 494 q 140 482 168 482 q 101 495 111 482 q 90 535 90 508 q 163 643 90 585 q 260 681 179 654 q 354 707 342 707 q 501 649 454 707 q 549 506 549 590 m 189 167 q 215 94 189 133 q 276 56 242 56 q 354 79 310 56 q 428 129 399 103 q 432 318 432 222 q 226 251 315 303 q 189 167 189 233 m 338 929 l 154 760 q 122 783 133 760 q 328 1050 243 929 l 344 1050 q 517 822 419 942 l 550 783 q 518 760 544 760 l 338 929 z "},"ã":{"ha":685,"x_min":65,"x_max":665,"o":"m 549 506 l 544 167 q 610 65 544 65 l 660 67 q 665 44 665 60 l 663 29 q 510 -28 556 10 q 458 10 479 -19 q 433 74 436 40 q 213 -28 322 6 q 115 26 165 -28 q 65 160 65 79 q 83 233 65 200 q 126 278 101 265 q 432 368 229 329 l 432 500 q 408 614 432 576 q 349 651 383 651 q 276 640 315 651 q 222 594 238 628 q 206 500 206 561 q 187 488 206 494 q 140 482 168 482 q 101 495 111 482 q 90 535 90 508 q 163 643 90 585 q 260 681 179 654 q 354 707 342 707 q 501 649 454 707 q 549 506 549 590 m 189 167 q 215 94 189 133 q 276 56 242 56 q 354 79 310 56 q 428 129 399 103 q 432 318 432 229 q 226 251 315 303 q 189 167 189 233 m 438 801 q 330 823 399 801 q 228 844 261 844 q 129 806 194 844 q 107 833 117 813 q 158 875 132 853 q 256 932 226 932 q 349 910 285 932 q 441 889 414 889 q 476 891 468 889 q 495 899 485 893 q 510 907 506 904 q 528 919 515 910 q 544 929 542 928 q 568 899 563 925 q 497 840 540 878 q 438 801 454 801 z "},"ä":{"ha":685,"x_min":65,"x_max":665,"o":"m 188 822 q 117 915 139 857 q 211 985 160 964 q 279 893 264 946 q 238 852 265 874 q 188 822 210 831 m 488 822 q 417 915 439 857 q 511 985 460 964 q 579 893 564 946 q 538 852 565 874 q 488 822 510 831 m 549 506 l 544 167 q 610 65 544 65 l 660 67 q 665 44 665 60 l 663 29 q 510 -28 556 10 q 458 10 479 -19 q 433 74 436 40 q 213 -28 322 6 q 115 26 165 -28 q 65 160 65 79 q 83 233 65 200 q 126 278 101 265 q 432 368 229 329 l 432 500 q 408 614 432 576 q 349 651 383 651 q 276 640 315 651 q 222 594 238 628 q 206 500 206 561 q 187 488 206 494 q 140 482 168 482 q 101 495 111 482 q 90 535 90 508 q 163 643 90 585 q 260 681 179 654 q 354 707 342 707 q 501 649 454 707 q 549 506 549 590 m 189 167 q 215 94 189 133 q 276 56 242 56 q 354 79 310 56 q 428 129 399 103 q 432 318 432 229 q 226 251 315 303 q 189 167 189 233 z "},"å":{"ha":685,"x_min":65,"x_max":665,"o":"m 476 907 q 328 768 476 792 q 226 808 268 768 q 185 907 185 849 q 335 1046 185 1024 q 435 1006 394 1046 q 476 907 476 965 m 340 811 q 401 889 401 811 q 380 969 401 935 q 322 1004 358 1004 q 260 926 260 1004 q 282 846 260 881 q 340 811 304 811 m 549 506 l 544 167 q 610 65 544 65 l 660 67 q 665 44 665 60 l 663 29 q 510 -28 556 10 q 458 10 479 -19 q 433 74 436 40 q 213 -28 322 6 q 115 26 165 -28 q 65 160 65 79 q 83 233 65 200 q 126 278 101 265 q 432 368 229 329 l 432 500 q 408 614 432 576 q 349 651 383 651 q 276 640 315 651 q 222 594 238 628 q 206 500 206 561 q 187 488 206 494 q 140 482 168 482 q 101 495 111 482 q 90 535 90 508 q 163 643 90 585 q 260 681 179 654 q 354 707 342 707 q 501 649 454 707 q 549 506 549 590 m 189 167 q 215 94 189 133 q 276 56 242 56 q 354 79 310 56 q 428 129 399 103 q 432 318 432 229 q 226 251 315 303 q 189 167 189 233 z "},"æ":{"ha":1057,"x_min":65,"x_max":1001,"o":"m 768 72 q 960 133 876 72 q 982 104 978 126 l 839 -1 q 693 -28 806 -28 q 501 88 581 -28 q 215 -28 338 -4 q 117 26 168 -28 q 65 160 65 79 q 83 237 65 203 q 126 285 101 271 q 432 385 228 344 l 432 500 q 408 614 432 576 q 349 651 383 651 q 276 640 315 651 q 222 594 238 628 q 206 500 206 561 q 187 488 206 494 q 140 482 168 482 q 101 495 111 482 q 90 535 90 508 q 163 643 90 585 q 260 681 179 654 q 354 707 342 707 q 529 601 485 707 q 715 707 599 676 q 858 665 786 707 q 956 528 929 624 q 993 510 961 511 q 1001 490 1001 500 q 999 468 1001 479 q 543 374 767 400 q 563 234 543 299 q 635 121 582 169 q 768 72 689 72 m 190 167 q 217 94 190 133 q 279 56 243 56 q 474 135 351 56 q 433 333 433 229 q 228 260 321 315 q 190 167 190 236 m 850 494 q 857 504 857 496 q 841 545 857 513 q 784 615 825 578 q 697 651 743 651 q 629 635 651 651 q 549 432 561 583 q 711 450 628 432 q 850 494 794 468 z "},"ç":{"ha":661,"x_min":56,"x_max":624,"o":"m 294 -161 q 289 -148 288 -158 q 290 -124 290 -137 l 307 -22 q 119 99 183 1 q 56 333 56 197 q 89 497 56 425 q 167 606 122 568 q 264 669 211 644 q 400 707 349 707 q 622 626 535 707 q 594 576 618 603 q 539 543 569 550 q 450 624 494 596 q 341 651 406 651 q 224 567 276 651 q 171 394 171 483 q 194 233 171 304 q 272 114 217 163 q 408 65 328 65 q 611 118 488 65 q 624 90 624 111 l 489 -1 q 438 -19 475 -10 q 376 -28 400 -28 l 363 -28 l 357 -94 q 464 -157 432 -125 q 496 -244 496 -189 q 472 -325 496 -299 q 407 -372 449 -351 l 254 -372 q 250 -354 250 -367 l 251 -337 q 429 -260 429 -335 q 397 -202 429 -225 q 294 -161 365 -179 z "},"è":{"ha":718,"x_min":65,"x_max":663,"o":"m 417 72 q 618 133 531 72 q 640 104 638 126 l 490 -1 q 342 -28 457 -28 q 146 76 226 -28 q 65 338 65 179 q 153 588 65 496 q 361 707 240 679 q 547 636 467 707 q 615 528 596 594 q 654 510 619 511 q 663 490 663 500 q 660 468 663 479 q 179 389 415 411 q 278 122 179 211 q 417 72 333 72 m 504 496 q 511 506 511 500 q 494 545 511 513 q 433 615 476 578 q 343 651 390 651 q 274 638 296 651 q 185 446 196 585 q 356 462 260 446 q 504 496 451 478 m 439 760 l 200 968 q 278 1039 222 1017 q 442 819 343 944 l 471 783 q 439 760 465 760 z "},"é":{"ha":718,"x_min":65,"x_max":663,"o":"m 417 72 q 618 133 531 72 q 640 104 638 126 l 490 -1 q 342 -28 457 -28 q 146 76 226 -28 q 65 338 65 179 q 153 588 65 496 q 361 707 240 679 q 547 636 467 707 q 615 528 596 594 q 654 510 619 511 q 663 490 663 500 q 660 468 663 479 q 179 389 415 411 q 278 122 179 211 q 417 72 333 72 m 504 496 q 511 506 511 500 q 494 545 511 513 q 433 615 476 578 q 343 651 390 651 q 274 638 296 651 q 185 446 196 585 q 356 462 260 446 q 504 496 451 478 m 517 968 l 278 760 q 258 766 267 760 q 246 783 250 772 q 439 1039 354 918 q 517 968 494 1017 z "},"ê":{"ha":718,"x_min":65,"x_max":663,"o":"m 417 72 q 618 133 531 72 q 640 104 638 126 l 490 -1 q 342 -28 457 -28 q 146 76 226 -28 q 65 338 65 179 q 153 588 65 496 q 361 707 240 679 q 547 636 467 707 q 615 528 596 594 q 654 510 619 511 q 663 490 663 500 q 660 468 663 479 q 179 389 415 411 q 278 122 179 211 q 417 72 333 72 m 504 496 q 511 506 511 500 q 494 545 511 513 q 433 615 476 578 q 343 651 390 651 q 274 638 296 651 q 185 446 196 585 q 356 462 260 446 q 504 496 451 478 m 360 929 l 176 760 q 144 783 156 760 q 350 1050 265 929 l 367 1050 q 539 822 442 942 l 572 783 q 540 760 567 760 l 360 929 z "},"ë":{"ha":718,"x_min":65,"x_max":663,"o":"m 417 72 q 618 133 531 72 q 640 104 638 126 l 490 -1 q 342 -28 457 -28 q 146 76 226 -28 q 65 338 65 179 q 153 588 65 496 q 361 707 240 679 q 547 636 467 707 q 615 528 596 594 q 654 510 619 511 q 663 490 663 500 q 660 468 663 479 q 179 389 415 411 q 278 122 179 211 q 417 72 333 72 m 504 496 q 511 506 511 500 q 494 545 511 513 q 433 615 476 578 q 343 651 390 651 q 274 638 296 651 q 185 446 196 585 q 356 462 260 446 q 504 496 451 478 m 199 821 q 128 913 149 856 q 173 953 144 932 q 222 983 201 975 q 290 890 275 944 q 199 821 251 840 m 499 821 q 428 913 449 856 q 473 953 444 932 q 522 983 501 975 q 590 890 575 944 q 499 821 551 840 z "},"ì":{"ha":440,"x_min":46,"x_max":378,"o":"m 374 -4 l 249 0 q 65 -11 151 0 q 57 13 57 0 l 60 24 q 140 67 119 38 q 164 120 156 89 q 172 300 172 151 l 172 433 q 165 553 172 519 q 142 597 157 586 q 101 611 126 608 l 50 615 q 46 633 46 621 l 50 651 q 167 683 122 667 q 274 729 213 699 q 294 713 289 729 q 278 263 278 618 q 283 122 278 199 q 296 43 288 44 q 374 39 317 39 q 378 17 378 29 q 374 -4 378 4 m 294 760 l 56 968 q 133 1039 78 1017 q 297 819 199 944 l 326 783 q 294 760 321 760 z "},"í":{"ha":440,"x_min":46,"x_max":399,"o":"m 374 -4 l 249 0 q 65 -11 151 0 q 57 13 57 0 l 60 24 q 140 67 119 38 q 164 120 156 89 q 172 300 172 151 l 172 433 q 165 553 172 519 q 142 597 157 586 q 101 611 126 608 l 50 615 q 46 633 46 621 l 50 651 q 167 683 122 667 q 274 729 213 699 q 294 713 289 729 q 278 263 278 618 q 283 122 278 199 q 296 43 288 44 q 374 39 317 39 q 378 17 378 29 q 374 -4 378 4 m 399 968 l 160 760 q 140 766 149 760 q 128 783 132 772 q 321 1039 235 918 q 399 968 376 1017 z "},"î":{"ha":440,"x_min":-12,"x_max":415,"o":"m 374 -4 l 249 0 q 65 -11 151 0 q 57 13 57 0 l 60 24 q 140 67 119 38 q 164 120 156 89 q 172 300 172 151 l 172 433 q 165 553 172 519 q 142 597 157 586 q 101 611 126 608 l 50 615 q 46 633 46 621 l 50 651 q 167 683 122 667 q 274 729 213 699 q 294 713 289 729 q 278 263 278 618 q 283 122 278 199 q 296 43 288 44 q 374 39 317 39 q 378 17 378 29 q 374 -4 378 4 m 201 929 l 18 760 q -1 766 7 760 q -12 783 -8 772 q 193 1050 107 929 l 210 1050 q 383 822 285 942 l 415 783 q 383 760 410 760 l 201 929 z "},"ï":{"ha":440,"x_min":-1,"x_max":424,"o":"m 68 818 q -1 911 19 854 q 44 952 15 931 q 93 982 72 974 q 161 889 144 940 q 118 848 146 869 q 68 818 90 826 m 332 818 q 261 911 282 856 q 306 952 278 931 q 356 982 335 974 q 424 889 408 940 q 332 818 383 838 m 374 -4 l 249 0 q 65 -11 151 0 q 57 13 57 0 l 60 24 q 140 67 119 38 q 164 120 156 89 q 172 300 172 151 l 172 433 q 165 553 172 519 q 142 597 157 586 q 101 611 126 608 l 50 615 q 46 633 46 621 l 50 651 q 167 683 122 667 q 274 729 213 699 q 294 713 289 729 q 278 263 278 618 q 283 122 278 199 q 296 43 288 44 q 374 39 317 39 q 378 17 378 29 q 374 -4 378 4 z "},"ð":{"ha":821,"x_min":56,"x_max":760,"o":"m 489 946 q 685 703 611 851 q 760 428 760 556 q 735 220 760 300 q 661 91 711 140 q 548 15 611 42 q 394 -28 485 -11 q 153 77 251 -28 q 56 339 56 182 q 406 707 56 649 q 579 656 494 707 q 524 772 560 714 q 454 863 488 829 l 404 913 l 222 829 q 194 888 197 843 l 351 954 q 174 1065 294 999 q 200 1115 176 1099 l 207 1121 q 424 993 310 1071 l 617 1078 q 638 1057 629 1071 q 649 1022 646 1043 l 479 951 l 489 946 m 193 376 q 193 312 193 376 q 257 140 193 249 q 427 32 321 32 q 578 112 533 32 q 622 379 622 192 q 610 543 622 456 q 378 639 511 639 q 238 571 283 639 q 193 376 193 503 z "},"ñ":{"ha":876,"x_min":35,"x_max":828,"o":"m 94 624 l 40 622 q 35 640 35 629 q 38 660 35 651 q 192 699 132 672 q 215 707 211 707 q 246 668 228 707 q 276 582 264 629 q 550 707 417 661 q 681 640 635 707 q 726 461 726 572 l 724 278 q 744 42 724 46 q 822 39 765 39 q 828 18 828 29 q 822 -4 828 7 l 694 0 q 511 -11 579 0 q 504 13 504 -3 l 506 24 q 568 51 546 33 q 597 84 590 68 q 607 133 603 100 q 611 260 611 165 l 611 375 q 589 539 611 472 q 567 578 579 565 q 493 611 536 611 q 407 594 450 611 q 342 564 364 578 q 279 522 319 550 q 274 228 274 413 q 292 42 274 44 q 363 39 311 39 q 368 18 368 29 q 363 -4 368 7 l 244 0 q 61 -11 139 0 q 54 13 54 -3 l 56 24 q 118 51 96 33 q 147 84 140 68 q 158 144 153 100 q 163 332 163 188 q 162 492 163 476 q 160 533 161 508 q 154 571 158 558 q 142 597 150 583 q 94 624 128 624 m 535 824 q 428 845 496 824 q 325 867 360 867 q 228 828 290 867 q 206 856 215 835 q 286 921 246 888 q 355 954 326 954 q 447 933 383 954 q 538 911 511 911 q 574 913 565 911 q 594 921 583 915 q 609 929 604 926 q 627 941 614 932 q 643 951 640 950 q 667 921 658 947 q 601 865 647 906 q 535 824 554 824 z "},"ò":{"ha":818,"x_min":56,"x_max":763,"o":"m 763 339 q 404 -28 763 31 q 156 77 257 -28 q 56 339 56 182 q 415 707 56 650 q 662 600 561 707 q 763 339 763 493 m 435 32 q 635 288 635 32 q 568 540 635 432 q 392 649 501 649 q 233 578 282 649 q 183 378 183 508 q 251 140 183 249 q 435 32 319 32 m 476 760 l 238 968 q 315 1039 257 1017 q 478 819 390 931 l 507 783 q 476 760 501 760 z "},"ó":{"ha":818,"x_min":56,"x_max":763,"o":"m 763 339 q 404 -28 763 31 q 156 77 257 -28 q 56 339 56 182 q 415 707 56 650 q 662 600 561 707 q 763 339 763 493 m 435 32 q 635 288 635 32 q 568 540 635 432 q 392 649 501 649 q 233 578 282 649 q 183 378 183 508 q 251 140 183 249 q 435 32 319 32 m 599 968 l 360 760 q 340 766 349 760 q 328 783 332 772 q 521 1039 435 918 q 599 968 576 1017 z "},"ô":{"ha":818,"x_min":56,"x_max":763,"o":"m 763 339 q 404 -28 763 31 q 156 77 257 -28 q 56 339 56 182 q 415 707 56 650 q 662 600 561 707 q 763 339 763 493 m 435 32 q 635 288 635 32 q 568 540 635 432 q 392 649 501 649 q 233 578 282 649 q 183 378 183 508 q 251 140 183 249 q 435 32 319 32 m 411 929 l 228 760 q 196 783 208 760 q 401 1050 317 929 l 418 1050 q 592 822 496 942 l 624 783 q 593 760 618 760 l 411 929 z "},"õ":{"ha":818,"x_min":56,"x_max":763,"o":"m 763 339 q 404 -28 763 31 q 156 77 257 -28 q 56 339 56 182 q 415 707 56 650 q 662 600 561 707 q 763 339 763 493 m 435 32 q 635 288 635 32 q 568 540 635 432 q 392 649 501 649 q 233 578 282 649 q 183 378 183 508 q 251 140 183 249 q 435 32 319 32 m 518 824 q 411 845 479 824 q 308 867 343 867 q 211 828 274 867 q 189 856 199 835 q 269 921 229 888 q 338 954 310 954 q 431 933 367 954 q 522 911 494 911 q 558 913 549 911 q 577 921 567 915 q 592 929 588 926 q 610 941 597 932 q 626 951 624 950 q 650 921 642 947 q 584 865 631 906 q 518 824 538 824 z "},"ö":{"ha":818,"x_min":56,"x_max":763,"o":"m 763 339 q 404 -28 763 31 q 156 77 257 -28 q 56 339 56 182 q 415 707 56 650 q 662 600 561 707 q 763 339 763 493 m 435 32 q 635 288 635 32 q 568 540 635 432 q 392 649 501 649 q 233 578 282 649 q 183 378 183 508 q 251 140 183 249 q 435 32 319 32 m 250 821 q 179 913 204 854 q 224 953 196 932 q 274 983 253 975 q 343 890 326 944 q 250 821 300 839 m 550 821 q 479 913 504 854 q 524 953 496 932 q 574 983 553 975 q 643 890 626 944 q 550 821 600 839 z "},"÷":{"ha":739,"x_min":56,"x_max":683,"o":"m 357 454 q 282 554 307 500 q 385 629 338 610 q 457 528 439 575 q 413 487 443 510 q 357 454 382 464 m 357 50 q 282 150 310 93 q 385 226 331 201 q 457 124 439 172 q 357 50 424 81 m 683 383 q 669 333 676 371 q 665 310 667 317 l 368 310 q 68 299 204 310 q 56 318 56 306 q 74 393 61 331 l 367 393 q 671 406 535 393 q 683 383 683 399 z "},"ø":{"ha":818,"x_min":56,"x_max":763,"o":"m 157 -99 q 147 -100 154 -100 q 136 -97 139 -100 q 99 -40 133 -93 l 172 61 q 56 339 56 169 q 415 707 56 650 q 589 657 511 707 q 663 779 649 754 q 674 782 667 782 q 688 776 682 782 q 722 722 697 758 l 646 615 q 763 339 763 507 q 404 -28 763 31 q 228 18 308 -28 q 157 -99 172 -67 m 378 649 q 330 649 378 649 q 233 578 282 649 q 183 385 183 508 q 240 157 183 263 l 400 382 q 538 579 472 481 q 378 649 475 649 m 435 32 q 635 288 635 32 q 579 521 635 424 l 449 338 q 282 100 401 274 q 435 32 346 32 z "},"ù":{"ha":846,"x_min":28,"x_max":813,"o":"m 685 717 q 706 700 697 714 q 693 389 693 606 l 694 190 q 757 65 694 65 l 807 67 q 813 44 813 57 l 811 29 q 714 3 742 18 l 678 -14 q 657 -28 671 -18 q 606 22 626 -17 q 582 99 585 60 q 311 -28 464 25 q 178 38 222 -28 q 135 218 135 104 l 135 483 q 126 603 135 578 q 78 638 118 629 l 32 643 q 28 661 28 651 l 32 678 q 139 696 56 682 l 238 717 q 257 700 249 714 q 246 299 246 624 q 368 71 246 71 q 455 86 411 71 q 521 116 499 101 q 578 157 543 131 q 582 289 582 249 l 582 457 q 574 575 582 542 q 552 620 567 608 q 513 638 538 632 l 467 643 l 463 661 l 467 678 q 517 685 481 681 q 615 701 554 689 q 685 717 676 714 m 501 760 l 263 968 q 340 1039 285 1017 q 504 819 432 913 l 533 783 q 501 760 528 760 z "},"ú":{"ha":846,"x_min":28,"x_max":813,"o":"m 685 717 q 706 700 697 714 q 693 389 693 606 l 694 190 q 757 65 694 65 l 807 67 q 813 44 813 57 l 811 29 q 714 3 742 18 l 678 -14 q 657 -28 671 -18 q 606 22 626 -17 q 582 99 585 60 q 311 -28 464 25 q 178 38 222 -28 q 135 218 135 104 l 135 483 q 126 603 135 578 q 78 638 118 629 l 32 643 q 28 661 28 651 l 32 678 q 139 696 56 682 l 238 717 q 257 700 249 714 q 246 299 246 624 q 368 71 246 71 q 455 86 411 71 q 521 116 499 101 q 578 157 543 131 q 582 289 582 249 l 582 457 q 574 575 582 542 q 552 620 567 608 q 513 638 538 632 l 467 643 l 463 661 l 467 678 q 517 685 481 681 q 615 701 554 689 q 685 717 676 714 m 596 968 l 357 760 q 338 766 346 760 q 326 783 331 772 q 518 1039 433 918 q 596 968 576 1017 z "},"û":{"ha":846,"x_min":28,"x_max":813,"o":"m 685 717 q 706 700 697 714 q 693 389 693 606 l 694 190 q 757 65 694 65 l 807 67 q 813 44 813 57 l 811 29 q 714 3 742 18 l 678 -14 q 657 -28 671 -18 q 606 22 626 -17 q 582 99 585 60 q 311 -28 464 25 q 178 38 222 -28 q 135 218 135 104 l 135 483 q 126 603 135 578 q 78 638 118 629 l 32 643 q 28 661 28 651 l 32 678 q 139 696 56 682 l 238 717 q 257 700 249 714 q 246 299 246 624 q 368 71 246 71 q 455 86 411 71 q 521 116 499 101 q 578 157 543 131 q 582 289 582 249 l 582 457 q 574 575 582 542 q 552 620 567 608 q 513 638 538 632 l 467 643 l 463 661 l 467 678 q 517 685 481 681 q 615 701 554 689 q 685 717 676 714 m 407 929 l 224 760 q 205 766 213 760 q 193 783 197 772 q 399 1050 313 929 l 415 1050 q 589 822 490 942 l 621 783 q 589 760 615 760 l 407 929 z "},"ü":{"ha":846,"x_min":28,"x_max":813,"o":"m 685 717 q 706 700 697 714 q 693 389 693 606 l 694 190 q 757 65 694 65 l 807 67 q 813 44 813 57 l 811 29 q 714 3 742 18 l 678 -14 q 657 -28 671 -18 q 606 22 626 -17 q 582 99 585 60 q 311 -28 464 25 q 178 38 222 -28 q 135 218 135 104 l 135 483 q 126 603 135 578 q 78 638 118 629 l 32 643 q 28 661 28 651 l 32 678 q 139 696 56 682 l 238 717 q 257 700 249 714 q 246 299 246 624 q 368 71 246 71 q 455 86 411 71 q 521 116 499 101 q 578 157 543 131 q 582 289 582 249 l 582 457 q 574 575 582 542 q 552 620 567 608 q 513 638 538 632 l 467 643 l 463 661 l 467 678 q 517 685 481 681 q 615 701 554 689 q 685 717 676 714 m 239 821 q 168 913 193 854 q 213 953 185 932 q 263 983 242 975 q 332 890 315 944 q 239 821 289 839 m 539 821 q 468 913 493 854 q 513 953 485 932 q 563 983 542 975 q 632 890 615 944 q 539 821 589 839 z "},"ý":{"ha":743,"x_min":-17,"x_max":743,"o":"m 135 685 l 254 689 q 257 668 257 682 l 254 646 q 193 643 211 646 q 260 428 206 558 l 394 94 l 515 404 q 585 638 576 561 q 482 643 535 643 q 476 663 476 651 q 479 685 476 674 l 615 685 q 732 693 679 685 q 743 657 743 675 q 693 626 708 642 q 611 483 656 586 l 410 0 q 351 -149 392 -43 q 295 -297 311 -256 q 265 -376 279 -339 q 233 -453 251 -412 q 174 -539 196 -539 q 144 -531 167 -539 q 10 -493 85 -510 q 22 -449 10 -465 q 76 -457 72 -457 q 180 -363 117 -457 q 278 -178 243 -269 l 328 -44 l 101 511 q 38 629 67 599 q -17 663 19 651 q -10 699 -17 688 q 135 685 82 685 m 571 968 l 332 760 q 313 766 321 760 q 300 783 304 772 q 493 1039 407 918 q 571 968 549 1017 z "},"þ":{"ha":824,"x_min":24,"x_max":772,"o":"m 28 1115 l 24 1132 l 28 1150 q 139 1176 103 1164 q 265 1243 175 1189 q 285 1229 276 1243 q 257 582 257 1057 q 510 707 435 683 q 693 580 614 685 q 772 321 772 475 q 727 156 772 228 q 617 46 682 83 q 382 -28 486 -28 q 257 -7 356 -28 l 257 -85 q 274 -457 257 -456 q 429 -461 317 -461 q 433 -483 433 -471 q 429 -504 433 -496 l 229 -500 q 35 -511 111 -500 q 28 -487 28 -504 l 29 -476 q 107 -437 86 -462 q 133 -374 128 -412 q 149 82 149 -267 l 149 938 q 135 1066 149 1029 q 76 1110 121 1103 l 28 1115 m 257 122 q 335 60 257 89 q 444 32 413 32 q 590 103 524 32 q 656 268 656 174 q 590 511 656 413 q 448 610 525 610 q 257 522 371 610 l 257 122 z "},"ÿ":{"ha":743,"x_min":-17,"x_max":743,"o":"m 254 689 q 257 669 257 682 q 254 646 257 656 q 193 643 211 646 q 260 428 206 558 l 394 94 l 515 404 q 585 638 576 561 q 482 643 535 643 l 476 667 q 479 685 476 674 l 615 685 q 732 693 679 685 q 743 657 743 675 q 693 626 708 642 q 611 483 656 586 l 410 0 q 351 -149 392 -43 q 295 -297 311 -256 q 265 -376 279 -339 q 234 -452 251 -412 q 201 -515 217 -492 q 176 -539 185 -539 q 126 -524 167 -539 q 10 -493 85 -510 q 22 -449 10 -465 q 76 -457 72 -457 q 180 -363 117 -457 q 278 -178 243 -269 l 328 -44 l 101 511 q 38 629 67 599 q -17 663 19 651 q -10 699 -17 688 q 135 685 82 685 l 254 689 m 221 821 q 150 913 171 856 q 195 953 167 932 q 244 983 224 975 q 313 890 297 944 q 221 821 274 840 m 521 821 q 450 913 471 856 q 495 953 467 932 q 544 983 524 975 q 613 890 597 944 q 521 821 574 840 z "},"ħ":{"ha":868,"x_min":10,"x_max":826,"o":"m 346 -4 l 229 0 q 33 -11 121 0 q 26 13 26 -3 l 28 24 q 105 62 85 36 q 135 147 125 88 q 146 582 146 206 l 146 840 q 22 833 68 838 q 10 854 10 839 q 28 915 28 886 l 146 915 l 146 938 q 117 1092 146 1064 q 78 1110 101 1107 l 28 1115 q 24 1133 24 1122 q 28 1150 24 1143 q 181 1194 126 1168 q 263 1243 217 1213 q 285 1229 276 1243 q 261 915 268 1133 l 300 915 q 663 926 490 915 q 676 904 676 915 q 657 843 657 875 l 260 843 q 257 578 257 750 q 539 707 433 675 q 675 640 629 707 q 721 461 721 574 l 718 283 q 739 42 718 46 q 821 39 760 39 q 826 21 826 29 q 821 -4 826 13 l 693 0 q 510 -11 578 0 q 501 13 501 0 l 504 24 q 581 61 561 36 q 603 121 600 86 q 607 261 607 156 q 606 392 607 367 q 602 459 606 418 q 590 522 599 500 q 567 567 581 543 q 463 610 539 610 q 257 518 388 610 q 256 371 256 449 q 273 44 256 50 q 346 39 290 39 q 350 17 350 29 q 346 -4 350 4 z "},"Ĩ":{"ha":494,"x_min":18,"x_max":479,"o":"m 426 1004 q 429 983 429 996 q 426 961 429 971 q 333 957 365 961 q 310 644 310 954 l 310 418 q 316 165 310 286 q 332 43 322 44 q 454 39 368 39 l 457 17 q 454 -4 457 4 l 278 0 q 39 -11 132 0 q 32 7 32 -4 q 33 24 32 18 q 144 69 124 43 q 161 99 157 86 q 168 138 165 111 q 185 489 185 246 l 185 644 q 161 957 185 954 q 68 961 129 961 l 65 983 q 68 1004 65 996 l 249 1000 l 426 1004 m 349 1101 q 241 1123 310 1101 q 139 1144 172 1144 q 40 1106 106 1144 q 18 1133 28 1113 q 68 1174 43 1151 q 165 1232 133 1232 q 260 1210 196 1232 q 352 1189 325 1189 q 388 1191 379 1189 q 406 1199 396 1193 q 422 1207 417 1204 q 440 1219 426 1210 q 456 1229 453 1228 q 479 1199 474 1225 q 413 1142 460 1183 q 349 1101 367 1101 z "},"ĩ":{"ha":440,"x_min":-29,"x_max":432,"o":"m 374 -4 l 249 0 q 65 -11 151 0 q 57 13 57 0 l 60 24 q 140 67 119 38 q 164 120 156 89 q 172 300 172 151 l 172 433 q 165 553 172 519 q 142 597 157 586 q 101 611 126 608 l 50 615 q 46 633 46 621 l 50 651 q 167 683 122 667 q 274 729 213 699 q 294 713 289 729 q 278 263 278 618 q 283 122 278 199 q 296 43 288 44 q 374 39 317 39 q 378 17 378 29 q 374 -4 378 4 m 300 824 q 192 845 261 824 q 90 867 124 867 q -7 828 56 867 q -29 856 -19 835 q 18 895 -7 874 q 50 922 43 917 q 119 954 89 954 q 213 933 149 954 q 303 911 276 911 q 339 913 331 911 q 358 921 347 915 q 373 929 368 926 q 391 941 378 932 q 407 951 404 950 q 432 921 424 947 q 385 883 404 900 q 300 824 319 824 z "},"ı":{"ha":440,"x_min":46,"x_max":378,"o":"m 374 -4 l 249 0 q 65 -11 151 0 q 57 13 57 0 l 60 24 q 140 67 119 38 q 164 120 156 89 q 172 300 172 151 l 172 433 q 165 553 172 519 q 142 597 157 586 q 101 611 126 608 l 50 615 q 46 633 46 621 l 50 651 q 167 683 122 667 q 274 729 213 699 q 294 713 289 729 q 278 263 278 618 q 283 122 278 199 q 296 43 288 44 q 374 39 317 39 q 378 17 378 29 q 374 -4 378 4 z "},"ĳ":{"ha":849,"x_min":46,"x_max":765,"o":"m 374 -4 l 249 0 q 65 -11 151 0 q 57 13 57 0 l 60 24 q 140 67 119 38 q 164 120 156 89 q 172 300 172 151 l 172 433 q 165 553 172 519 q 142 597 157 586 q 101 611 126 608 l 50 615 q 46 633 46 621 l 50 651 q 167 683 122 667 q 274 729 213 699 q 294 713 289 729 q 278 263 278 618 q 283 122 278 199 q 296 43 288 44 q 374 39 317 39 q 378 17 378 29 q 374 -4 378 4 m 243 888 q 172 979 193 922 q 217 1020 189 999 q 267 1050 246 1042 q 335 957 319 1011 q 243 888 296 907 m 594 424 q 582 558 594 518 q 522 601 569 597 q 471 606 504 604 q 467 626 467 615 q 471 643 467 638 q 588 672 526 653 q 704 721 686 711 q 724 707 724 721 q 706 263 706 594 l 706 -78 q 677 -299 706 -219 q 563 -444 649 -378 l 446 -533 q 424 -506 424 -526 l 485 -444 q 578 -272 561 -368 q 594 113 594 -176 l 594 424 m 672 888 q 601 979 626 921 q 647 1020 618 999 q 696 1050 675 1042 q 765 957 749 1011 q 672 888 722 906 z "},"Ĵ":{"ha":490,"x_min":-7,"x_max":479,"o":"m 451 1057 l 244 1190 l 35 1057 q 17 1065 24 1058 q 7 1085 10 1072 q 235 1311 133 1204 l 251 1311 q 444 1117 363 1197 l 479 1085 q 451 1057 476 1060 m 228 1000 q 406 1011 344 1000 q 413 992 413 1003 q 411 976 413 982 q 332 856 350 965 q 318 549 318 793 l 318 117 q 290 -125 318 -53 q 157 -278 261 -197 l 18 -383 q -7 -351 -7 -378 l 71 -272 q 173 -77 151 -190 q 194 232 194 36 l 194 601 q 172 957 194 954 q 54 961 135 961 l 50 983 q 54 1004 50 996 l 228 1000 z "},"ĵ":{"ha":407,"x_min":-26,"x_max":401,"o":"m 154 113 l 154 424 q 142 558 154 518 q 82 601 129 597 l 29 606 q 26 626 26 615 l 29 643 q 146 672 85 653 q 263 721 236 707 q 283 711 281 721 l 283 707 q 265 263 265 606 l 265 -78 q 237 -299 265 -219 q 122 -444 208 -378 l 6 -533 q -17 -506 -17 -526 l 44 -444 q 138 -271 121 -368 q 154 113 154 -174 m 189 929 l 6 760 q -26 783 -14 760 q 179 1050 94 929 l 196 1050 q 369 822 274 942 l 401 783 q 371 760 396 760 l 189 929 z "},"ķ":{"ha":749,"x_min":24,"x_max":765,"o":"m 489 -194 q 406 -390 489 -296 q 318 -462 364 -439 q 296 -435 300 -461 q 399 -283 390 -361 q 313 -206 343 -249 q 401 -111 349 -154 q 456 -153 431 -129 q 489 -194 482 -178 m 706 40 q 729 39 713 39 q 760 40 746 39 q 765 16 765 26 q 763 0 765 6 q 647 -16 699 -4 q 589 -28 594 -28 q 367 281 557 -28 q 285 415 293 403 l 421 515 q 563 640 497 571 q 460 651 517 650 q 456 672 456 660 l 460 689 q 610 685 574 685 q 715 690 646 685 q 724 657 724 679 l 400 443 q 538 228 472 329 q 640 86 603 128 q 706 40 678 44 m 346 -4 l 229 0 q 33 -11 121 0 q 26 13 26 -3 l 28 24 q 105 62 85 36 q 135 147 125 88 q 146 582 146 206 l 146 938 q 117 1092 146 1064 q 78 1110 101 1107 l 28 1115 q 24 1133 24 1122 q 28 1150 24 1143 q 181 1194 126 1168 q 263 1243 217 1213 q 285 1229 276 1243 q 256 578 256 1047 l 256 415 q 273 44 256 50 q 346 39 290 39 q 350 17 350 29 q 346 -4 350 4 z "},"ĸ":{"ha":749,"x_min":24,"x_max":765,"o":"m 706 40 q 729 39 713 39 q 760 40 746 39 q 765 16 765 26 q 763 0 765 6 q 647 -16 699 -4 q 589 -28 594 -28 q 368 294 558 -28 q 285 433 294 419 l 421 533 q 571 660 524 611 q 467 671 542 665 q 463 690 463 678 l 467 707 q 629 704 582 704 q 722 710 676 704 q 732 676 732 696 l 400 461 q 533 235 469 338 q 706 40 647 49 m 346 -4 l 229 0 q 33 -11 121 0 q 26 13 26 -3 l 28 24 q 105 62 85 36 q 132 126 125 88 q 146 485 146 210 l 146 594 q 117 644 146 636 q 78 650 103 649 l 28 654 q 24 672 24 661 q 28 689 24 682 q 206 744 157 713 q 232 764 211 749 q 257 782 253 779 q 279 768 271 782 q 256 500 256 707 l 256 433 q 273 44 256 50 q 346 39 290 39 q 350 17 350 29 q 346 -4 350 4 z "},"ŀ":{"ha":513,"x_min":15,"x_max":543,"o":"m 382 -4 l 229 0 q 22 -11 110 0 q 15 13 15 -3 l 17 24 q 103 61 82 36 q 135 146 125 86 q 146 582 146 206 l 146 938 q 117 1092 146 1064 q 78 1110 101 1107 l 28 1115 q 24 1133 24 1122 q 28 1150 24 1143 q 181 1194 126 1168 q 263 1243 217 1213 q 285 1229 276 1243 q 256 578 256 1047 l 256 415 q 274 44 256 50 q 382 39 299 39 q 385 17 385 29 q 382 -4 385 4 m 440 533 q 365 635 386 575 q 415 679 383 656 q 468 711 446 703 q 543 610 528 664 q 496 565 526 588 q 440 533 465 542 z "},"Ł":{"ha":865,"x_min":85,"x_max":865,"o":"m 118 1004 l 251 1000 q 450 1011 379 1000 q 457 989 457 1003 l 456 976 q 380 938 399 961 q 357 872 361 915 q 340 528 340 710 l 400 563 q 550 660 436 585 q 711 771 664 735 q 733 757 728 767 l 733 685 l 340 451 l 340 239 q 350 56 340 118 q 467 50 400 50 q 750 88 610 50 q 790 174 771 121 q 813 238 810 228 q 835 239 821 239 q 865 226 849 239 q 835 22 854 167 q 817 4 833 6 q 654 -6 756 -6 l 417 0 l 324 0 q 93 -11 167 0 q 85 13 85 0 l 88 24 q 183 75 160 40 q 208 165 200 103 q 218 376 217 228 q 144 318 211 372 q 121 332 125 318 l 121 396 l 221 456 l 221 765 q 201 957 221 956 q 118 961 176 961 q 115 983 115 971 q 118 1004 115 996 z "},"ł":{"ha":426,"x_min":26,"x_max":396,"o":"m 157 565 q 54 494 118 546 q 35 506 42 494 l 35 574 l 157 644 l 157 938 q 128 1092 157 1064 q 89 1110 113 1107 l 39 1115 q 35 1133 35 1122 q 39 1150 35 1143 q 192 1194 138 1168 q 274 1243 228 1213 q 296 1229 288 1243 q 267 707 275 1100 q 372 788 314 738 q 394 774 388 788 l 394 701 l 267 628 l 267 415 q 285 44 267 50 q 393 39 310 39 q 396 17 396 29 q 393 -4 396 4 l 240 0 q 33 -11 121 0 q 26 13 26 -3 l 28 24 q 115 61 93 36 q 147 144 136 86 q 157 565 157 201 z "},"Ń":{"ha":1194,"x_min":40,"x_max":1140,"o":"m 782 1243 l 515 1071 q 497 1078 504 1071 q 488 1099 490 1085 q 715 1324 613 1217 q 782 1243 768 1290 m 367 -4 l 210 0 q 49 -11 114 0 q 40 13 40 0 l 43 24 q 139 75 115 40 q 163 144 157 103 q 194 907 188 325 q 133 956 160 944 q 49 971 107 967 q 44 992 44 979 q 49 1013 44 1006 l 276 1018 q 557 732 318 1018 q 956 218 693 571 q 947 605 951 326 q 929 957 942 883 q 817 961 899 961 q 811 984 811 972 q 815 1004 811 996 l 972 1000 q 1133 1011 1068 1000 q 1140 988 1140 1003 l 1139 976 q 1049 933 1071 961 q 1022 856 1026 906 q 1004 -21 1004 567 l 971 -35 l 940 4 q 421 668 675 354 q 239 865 321 790 q 240 419 239 678 q 257 43 240 161 q 367 39 289 39 q 371 17 371 28 q 367 -4 371 6 z "},"ń":{"ha":876,"x_min":35,"x_max":828,"o":"m 94 624 l 40 622 q 35 640 35 629 q 38 660 35 651 q 192 699 132 672 q 215 707 211 707 q 246 668 228 707 q 276 582 264 629 q 550 707 417 661 q 681 640 635 707 q 726 461 726 572 l 724 278 q 744 42 724 46 q 822 39 765 39 q 828 18 828 29 q 822 -4 828 7 l 694 0 q 511 -11 579 0 q 504 13 504 -3 l 506 24 q 568 51 546 33 q 597 84 590 68 q 607 133 603 100 q 611 260 611 165 l 611 375 q 589 539 611 472 q 567 578 579 565 q 493 611 536 611 q 407 594 450 611 q 342 564 364 578 q 279 522 319 550 q 274 228 274 413 q 292 42 274 44 q 363 39 311 39 q 368 18 368 29 q 363 -4 368 7 l 244 0 q 61 -11 139 0 q 54 13 54 -3 l 56 24 q 118 51 96 33 q 147 84 140 68 q 158 144 153 100 q 163 332 163 188 q 162 492 163 476 q 160 533 161 508 q 154 571 158 558 q 142 597 150 583 q 94 624 128 624 m 688 968 l 449 760 q 429 766 438 760 q 417 783 421 772 q 610 1039 524 918 q 688 968 665 1017 z "},"Œ":{"ha":1517,"x_min":89,"x_max":1424,"o":"m 585 1011 l 938 1000 l 1054 1000 l 1382 1010 q 1406 994 1406 1010 q 1400 961 1406 993 q 1382 768 1388 875 q 1351 760 1365 760 q 1328 765 1338 760 q 1301 922 1306 904 q 1074 951 1175 951 q 935 946 974 951 q 918 550 918 857 q 1037 544 940 544 q 1181 550 1133 544 q 1249 572 1228 556 q 1282 640 1271 589 q 1324 632 1311 640 q 1311 515 1311 549 l 1313 394 q 1289 388 1304 388 l 1268 390 l 1254 482 q 1080 494 1179 494 q 918 488 981 494 l 918 239 q 928 56 918 118 q 1026 50 971 50 q 1310 88 1167 50 q 1350 174 1331 121 q 1372 238 1369 228 q 1393 239 1379 239 q 1424 226 1407 239 q 1394 22 1404 126 q 1376 4 1393 6 q 1213 -6 1315 -6 l 976 0 l 901 0 q 758 -8 853 0 q 568 -17 664 -17 q 228 131 368 -17 q 89 496 89 278 q 115 672 89 592 q 182 803 142 751 q 275 894 222 854 q 377 956 328 935 q 475 990 426 976 q 585 1011 546 1011 m 275 327 q 299 268 275 327 q 412 132 322 210 q 602 54 501 54 q 772 88 703 54 q 788 187 776 103 q 800 489 800 271 q 797 794 800 707 q 788 924 793 881 q 553 949 707 949 q 314 838 400 949 q 228 571 228 728 q 275 327 228 444 z "},"œ":{"ha":1282,"x_min":56,"x_max":1226,"o":"m 743 389 q 801 167 743 261 q 977 72 860 72 q 1182 133 1094 72 q 1204 104 1196 129 l 1054 -1 q 928 -28 1017 -28 q 682 115 763 -28 q 404 -28 596 7 q 156 77 257 -28 q 56 339 56 182 q 415 707 56 650 q 570 666 499 707 q 689 554 642 625 q 924 707 769 671 q 1111 636 1029 707 q 1178 528 1160 594 q 1217 510 1183 511 q 1226 485 1226 500 l 1222 468 q 743 389 978 411 m 183 378 q 183 314 183 378 q 253 141 183 250 q 430 32 322 32 q 586 101 538 32 q 635 301 635 171 q 567 540 635 431 q 392 649 500 649 q 234 577 285 649 q 183 378 183 506 m 1056 545 q 1048 561 1056 545 q 996 615 1039 578 q 906 651 953 651 q 838 638 860 651 q 749 446 761 586 q 919 462 825 446 q 1067 496 1014 478 q 1074 506 1074 500 q 1056 545 1074 513 z "},"Ŕ":{"ha":978,"x_min":49,"x_max":985,"o":"m 611 1243 l 344 1071 q 326 1078 333 1071 q 317 1099 319 1085 q 544 1324 443 1217 q 611 1243 597 1290 m 68 1004 l 279 1000 l 444 1000 q 692 933 601 1000 q 782 724 782 865 q 726 548 782 617 q 572 451 669 479 q 695 258 621 367 q 813 99 769 149 q 888 44 857 49 q 982 39 918 39 q 985 17 985 28 q 982 -4 985 7 q 824 -19 881 -10 q 758 -28 768 -28 q 716 8 747 -28 q 643 106 685 43 q 567 224 601 169 q 491 348 533 278 q 439 433 449 418 q 301 439 350 433 l 301 232 q 311 49 301 149 q 433 39 354 39 q 438 15 438 28 q 433 -4 438 1 l 249 0 q 56 -11 143 0 q 49 13 49 -3 l 50 24 q 144 75 122 40 q 168 144 163 103 q 185 486 185 271 q 160 954 185 946 q 68 961 133 961 q 63 979 63 971 q 68 1004 63 988 m 661 709 q 661 760 661 709 q 603 883 661 811 q 450 956 546 956 q 317 950 354 956 q 301 489 301 889 q 440 485 351 485 q 595 546 529 485 q 661 709 661 607 z "},"Ŗ":{"ha":978,"x_min":49,"x_max":985,"o":"m 583 -194 q 500 -390 583 -296 q 413 -462 458 -439 q 390 -435 394 -461 q 493 -283 485 -361 q 407 -206 438 -249 q 496 -111 443 -154 q 551 -153 525 -129 q 583 -194 576 -178 m 68 1004 l 279 1000 l 444 1000 q 692 933 601 1000 q 782 724 782 865 q 726 548 782 617 q 572 451 669 479 q 695 258 621 367 q 813 99 769 149 q 888 44 857 49 q 982 39 918 39 q 985 17 985 28 q 982 -4 985 7 q 824 -19 881 -10 q 758 -28 768 -28 q 716 8 747 -28 q 643 106 685 43 q 567 224 601 169 q 491 348 533 278 q 439 433 449 418 q 301 439 350 433 l 301 232 q 311 49 301 149 q 433 39 354 39 q 438 15 438 28 q 433 -4 438 1 l 249 0 q 56 -11 143 0 q 49 13 49 -3 l 50 24 q 144 75 122 40 q 168 144 163 103 q 185 486 185 271 q 160 954 185 946 q 68 961 133 961 q 63 979 63 971 q 68 1004 63 988 m 661 709 q 661 760 661 709 q 603 883 661 811 q 450 956 546 956 q 317 950 354 956 q 301 489 301 886 q 440 485 351 485 q 595 546 529 485 q 661 709 661 607 z "},"ŗ":{"ha":588,"x_min":32,"x_max":588,"o":"m 296 -194 q 213 -390 296 -296 q 126 -462 169 -440 q 104 -435 107 -461 q 206 -283 197 -361 q 121 -206 150 -249 q 210 -111 153 -158 q 265 -153 239 -129 q 296 -194 290 -178 m 93 624 l 39 622 q 32 643 32 629 l 35 660 q 189 699 129 672 q 213 707 208 707 q 247 652 228 707 q 271 543 267 597 q 460 707 375 651 q 551 674 515 707 q 588 593 588 642 q 489 538 588 538 q 418 611 468 611 q 279 496 385 611 q 271 160 271 390 q 289 43 271 44 q 401 39 321 39 q 406 17 406 29 q 401 -4 406 4 l 246 0 q 44 -11 132 0 q 38 13 38 -3 l 39 24 q 133 67 113 38 q 156 138 149 89 q 163 332 163 188 q 162 492 163 476 q 160 532 161 507 q 154 569 158 557 q 142 597 150 582 q 93 624 128 624 z "},"Ř":{"ha":978,"x_min":49,"x_max":985,"o":"m 415 1178 l 622 1311 q 640 1304 633 1311 q 650 1283 647 1297 q 422 1057 524 1165 l 406 1057 q 213 1250 326 1144 l 178 1283 q 206 1311 182 1310 l 415 1178 m 68 1004 l 279 1000 l 444 1000 q 692 933 601 1000 q 782 724 782 865 q 726 548 782 617 q 572 451 669 479 q 694 258 621 367 q 812 99 767 150 q 888 44 857 49 q 982 39 918 39 q 985 17 985 28 q 982 -4 985 7 q 824 -19 881 -10 q 758 -28 768 -28 q 716 8 747 -28 q 643 106 685 43 q 567 224 601 169 q 491 348 533 278 q 439 433 449 418 q 301 439 350 433 l 301 232 q 311 49 301 149 q 433 39 354 39 q 438 15 438 28 q 433 -4 438 1 l 249 0 q 56 -11 143 0 q 49 13 49 -3 l 50 24 q 144 75 122 40 q 168 144 163 103 q 185 486 185 271 q 160 954 185 946 q 68 961 133 961 q 63 979 63 971 q 68 1004 63 988 m 661 709 q 661 760 661 709 q 603 883 661 811 q 450 956 546 956 q 317 950 354 956 q 301 489 301 886 q 440 485 351 485 q 595 546 529 485 q 661 709 661 607 z "},"ř":{"ha":589,"x_min":33,"x_max":589,"o":"m 94 624 l 40 622 q 33 643 33 629 l 38 660 q 192 699 132 672 q 215 707 211 707 q 249 651 229 707 q 272 543 268 596 q 461 707 379 651 q 553 674 518 707 q 589 593 589 642 q 490 538 589 538 q 421 611 469 611 q 282 496 388 611 q 272 160 272 390 q 290 43 272 44 q 404 39 322 39 q 407 17 407 29 q 404 -4 407 4 l 249 0 q 46 -11 133 0 q 39 13 39 -3 l 40 24 q 135 67 114 38 q 158 138 150 89 q 165 340 165 188 q 164 514 165 492 q 156 567 163 536 q 94 624 144 624 m 129 1076 l 313 906 l 494 1076 q 514 1070 506 1076 q 526 1051 522 1064 q 321 785 406 906 l 304 785 q 131 1011 226 893 l 99 1051 q 129 1076 104 1076 z "},"ˆ":{"ha":867,"x_min":217,"x_max":644,"o":"m 432 929 l 249 760 q 217 783 228 760 q 422 1050 338 929 l 439 1050 q 611 822 514 942 l 644 783 q 613 760 639 760 l 432 929 z "},"˜":{"ha":883,"x_min":211,"x_max":672,"o":"m 540 824 q 433 845 501 824 q 331 867 365 867 q 233 828 296 867 q 211 856 221 835 q 292 921 251 888 q 360 954 332 954 q 453 933 389 954 q 544 911 517 911 q 580 913 571 911 q 599 921 589 915 q 615 929 610 926 q 633 941 619 932 q 649 951 646 950 q 672 921 664 947 q 606 865 653 906 q 540 824 560 824 z "},"–":{"ha":924,"x_min":65,"x_max":860,"o":"m 460 378 q 846 390 689 378 q 860 368 860 385 q 840 301 851 351 l 461 301 q 78 290 235 301 q 65 311 65 296 q 83 378 75 339 l 460 378 z "},"—":{"ha":1490,"x_min":65,"x_max":1426,"o":"m 743 378 q 1413 389 1144 378 q 1426 367 1426 383 q 1407 301 1418 349 l 744 301 q 78 290 346 301 q 65 311 65 296 q 83 378 75 339 l 743 378 z "},"‘":{"ha":321,"x_min":93,"x_max":274,"o":"m 93 926 q 133 1048 93 975 q 243 1188 174 1121 q 272 1167 265 1188 q 200 1000 200 1063 q 274 901 246 963 q 167 822 222 843 q 120 874 142 843 q 93 926 99 906 z "},"’":{"ha":274,"x_min":46,"x_max":228,"o":"m 228 1083 q 188 962 228 1035 q 78 822 147 889 q 49 843 56 822 q 121 1010 121 946 q 46 1107 75 1047 q 154 1188 99 1164 q 201 1134 179 1165 q 228 1083 222 1103 z "},"‚":{"ha":344,"x_min":93,"x_max":274,"o":"m 274 51 q 233 -70 274 3 q 124 -210 193 -143 q 94 -189 101 -210 q 167 -22 167 -85 q 93 76 121 15 q 200 156 144 135 q 247 103 225 135 q 274 51 268 72 z "},"“":{"ha":551,"x_min":93,"x_max":506,"o":"m 93 926 q 133 1048 93 975 q 243 1188 174 1121 q 272 1167 265 1188 q 200 1000 200 1063 q 274 901 246 963 q 167 822 222 843 q 120 874 142 843 q 93 926 99 906 m 324 926 q 364 1048 324 975 q 474 1188 404 1121 q 504 1167 497 1188 q 432 1000 432 1065 q 506 901 478 963 q 399 822 454 843 q 352 874 374 843 q 324 926 331 906 z "},"”":{"ha":551,"x_min":46,"x_max":460,"o":"m 228 1083 q 188 962 228 1035 q 78 822 147 889 q 49 843 56 822 q 121 1010 121 946 q 46 1107 75 1047 q 154 1188 99 1164 q 201 1134 179 1165 q 228 1083 222 1103 m 460 1083 q 419 962 460 1035 q 310 822 379 889 q 279 843 286 822 q 351 1010 351 943 q 278 1107 306 1049 q 385 1188 328 1164 q 460 1083 439 1142 z "},"„":{"ha":576,"x_min":93,"x_max":506,"o":"m 274 51 q 233 -70 274 3 q 124 -210 193 -143 q 94 -189 101 -210 q 167 -22 167 -85 q 93 76 121 15 q 200 156 144 135 q 247 103 225 135 q 274 51 268 72 m 506 51 q 465 -70 506 3 q 356 -210 425 -143 q 326 -189 333 -210 q 399 -22 399 -85 q 324 76 354 14 q 432 156 378 135 q 478 103 457 135 q 506 51 500 72 z "},"†":{"ha":590,"x_min":10,"x_max":582,"o":"m 351 776 q 571 833 453 776 q 582 818 582 829 q 567 679 567 760 q 351 707 428 707 l 239 707 q 21 650 136 707 q 10 663 10 651 q 24 801 24 724 q 239 776 163 776 l 257 776 q 233 1017 251 865 l 226 1067 q 374 1100 311 1078 q 390 1085 385 1100 q 335 776 343 947 l 351 776 m 288 -367 l 254 -7 q 239 526 254 206 l 235 633 q 294 640 261 640 l 357 633 q 339 -7 339 233 l 306 -367 l 288 -367 z "},"‡":{"ha":590,"x_min":10,"x_max":582,"o":"m 351 776 q 571 833 453 776 q 582 818 582 829 q 567 679 567 760 q 351 707 428 707 l 239 707 q 21 650 136 707 q 10 663 10 651 q 24 801 24 724 q 239 776 163 776 l 257 776 q 233 1017 251 865 l 226 1067 q 374 1100 311 1078 q 390 1085 385 1100 q 335 776 343 947 l 351 776 m 239 -96 q 21 -154 139 -96 q 10 -139 10 -150 q 24 0 24 -79 q 239 -28 163 -28 l 351 -28 q 571 29 453 -28 q 582 17 582 28 q 567 -122 567 -44 q 351 -96 428 -96 l 332 -96 q 358 -337 338 -187 l 365 -387 q 217 -421 283 -399 q 200 -406 206 -421 q 256 -96 246 -275 l 239 -96 m 485 361 l 474 311 l 318 311 l 339 244 q 353 78 339 168 l 357 44 q 297 38 333 38 q 235 44 261 38 q 254 244 254 171 l 272 311 q 115 304 179 311 q 107 317 107 307 q 118 367 113 333 l 272 367 l 254 433 q 239 600 254 500 l 235 633 q 292 643 271 643 q 357 633 333 643 q 339 433 339 507 l 318 367 q 478 374 418 367 q 485 361 485 371 z "},"•":{"ha":640,"x_min":139,"x_max":501,"o":"m 296 210 q 139 415 189 286 q 241 508 178 460 q 350 572 304 556 q 444 474 403 532 q 501 367 486 417 q 408 275 469 324 q 296 210 346 226 z "},"…":{"ha":1049,"x_min":93,"x_max":938,"o":"m 179 -28 q 93 85 124 18 q 210 172 142 140 q 293 57 268 121 q 243 10 278 36 q 179 -28 208 -15 m 501 -28 q 415 85 446 18 q 532 172 464 140 q 615 57 590 121 q 565 10 600 36 q 501 -28 531 -15 m 824 -28 q 738 85 768 18 q 854 172 786 140 q 938 57 913 121 q 888 10 922 36 q 824 -28 853 -15 z "},"‹":{"ha":444,"x_min":46,"x_max":383,"o":"m 46 335 l 46 354 q 213 503 125 419 q 346 643 300 588 q 381 622 372 643 l 383 615 l 190 344 l 383 74 q 346 46 376 46 q 46 335 233 179 z "},"›":{"ha":444,"x_min":61,"x_max":399,"o":"m 399 354 l 399 335 q 99 46 211 179 q 64 67 72 46 l 61 74 l 254 344 l 61 615 q 99 643 68 643 q 232 503 144 588 q 399 354 319 419 z "},"€":{"ha":711,"x_min":28,"x_max":635,"o":"m 257 288 q 493 296 383 288 q 504 279 504 293 q 489 232 499 269 l 240 232 q 428 65 288 65 q 626 101 513 65 q 635 72 635 90 l 493 -11 q 400 -28 468 -28 q 215 43 285 -28 q 121 229 144 114 l 39 222 q 28 239 28 226 q 43 288 39 263 l 257 288 m 599 507 l 579 511 q 550 621 567 583 q 414 660 499 660 q 281 592 329 660 q 222 433 233 525 l 274 433 q 517 443 406 433 q 528 426 528 439 q 513 376 521 410 l 276 376 q 54 368 124 376 q 43 385 43 372 q 57 433 56 411 l 122 433 q 185 575 139 515 q 283 661 231 635 q 422 707 376 707 q 628 671 531 707 q 618 513 622 625 q 599 507 607 507 z "},"ﬁ":{"ha":906,"x_min":18,"x_max":843,"o":"m 443 -4 l 251 0 q 40 -11 136 0 q 33 13 33 -3 l 35 24 q 143 94 125 42 q 165 576 165 157 l 165 622 l 28 621 q 18 638 18 626 q 33 685 25 651 l 167 685 q 176 810 168 707 q 219 986 183 914 q 297 1095 254 1058 q 392 1156 340 1132 q 525 1189 467 1189 q 662 1151 583 1189 q 782 1046 740 1114 q 771 1027 778 1039 q 737 996 764 1015 q 678 976 710 976 q 451 1129 554 1129 q 353 1050 403 1129 q 293 877 303 971 q 282 685 283 783 q 629 699 528 685 q 739 729 679 703 q 760 713 754 729 q 743 263 743 618 q 748 122 743 199 q 761 43 753 44 q 839 39 782 39 q 843 17 843 29 q 839 -4 843 4 l 713 0 q 529 -11 617 0 q 522 13 522 -3 l 524 24 q 604 67 583 38 q 628 120 619 89 q 638 300 638 151 l 638 449 q 626 581 638 538 q 579 624 615 624 l 279 624 l 279 415 q 296 44 279 46 q 443 39 353 39 q 449 17 449 28 q 443 -4 449 7 z "},"ﬂ":{"ha":896,"x_min":18,"x_max":867,"o":"m 443 -4 l 251 0 q 40 -11 136 0 q 33 13 33 -3 l 35 24 q 143 94 125 42 q 165 576 165 157 l 165 622 l 28 621 q 18 638 18 626 q 33 685 25 651 l 167 685 q 176 810 168 707 q 219 986 183 914 q 297 1095 254 1058 q 392 1156 340 1132 q 508 1189 467 1189 q 618 1167 549 1189 q 746 1243 688 1201 q 767 1229 757 1243 q 738 578 738 1047 l 738 415 q 756 44 738 49 q 863 39 788 39 q 867 17 867 29 q 863 -4 867 4 l 710 0 q 504 -11 600 0 q 496 13 496 0 l 499 24 q 587 63 565 38 q 618 157 608 89 q 628 582 628 225 l 628 938 q 621 1044 628 1013 q 451 1129 515 1129 q 353 1050 403 1129 q 293 877 303 971 q 282 685 283 783 q 465 694 388 685 q 474 676 474 689 q 465 648 468 665 q 460 626 461 631 l 279 624 l 279 415 q 296 44 279 46 q 443 39 353 39 q 449 17 449 28 q 443 -4 449 7 z "}}}
